<svg width="100%" height="100%" viewBox="0 0 1024 1024" fill="none" xmlns="http://www.w3.org/2000/svg">
<path d="M50.6084 542C52.5748 573.135 57.6386 603.429 65.4951 632.577L98.7168 623.676C99.064 624.964 99.4175 626.249 99.7764 627.532L66.5527 636.435C77.0257 673.978 92.142 709.585 111.243 742.598L140.942 725.45C141.609 726.606 142.28 727.758 142.957 728.906L113.261 746.052C132.93 779.374 156.681 809.999 183.825 837.241L207.896 813.171C208.835 814.118 209.778 815.061 210.725 816L186.661 840.063C214.083 867.112 244.884 890.742 278.375 910.263L295.207 881.109C296.356 881.786 297.507 882.457 298.663 883.123L281.841 912.26C315.112 931.266 350.985 946.239 388.794 956.51L397.377 924.478C398.661 924.834 399.948 925.182 401.237 925.526L392.659 957.541C421.436 965.088 451.313 969.918 482 971.74V975.747C408.75 971.437 340.068 950.134 279.84 915.725L279.836 915.733L276.372 913.733L276.375 913.728C207.678 873.689 150.198 816.51 109.796 748.052L109.679 748.12L107.679 744.656L107.778 744.598C72.9052 684.326 51.1997 615.482 46.5986 542H50.6084ZM972.757 542C965.325 660.705 913.261 767.306 833.149 845.219L831.501 846.867L831.474 846.84C755.304 920.182 654.13 967.735 542 975.45V971.439C568.412 969.606 594.211 965.545 619.208 959.439L610.921 928.51C612.22 928.202 613.516 927.888 614.811 927.569L623.091 958.472C661.358 948.769 697.713 934.272 731.478 915.653L715.78 888.466C716.953 887.83 718.122 887.188 719.288 886.541L734.971 913.704C769.138 894.474 800.601 871.006 828.646 844.012L806.86 822.227C807.827 821.308 808.789 820.384 809.747 819.456L831.516 841.225C859.392 813.924 883.808 783.105 904.049 749.487L877.795 734.329C878.488 733.19 879.176 732.048 879.859 730.902L906.098 746.052C925.811 712.655 941.425 676.551 952.246 638.43L923.329 630.681C923.698 629.4 924.062 628.117 924.419 626.831L953.319 634.575C961.486 604.814 966.738 573.847 968.75 542H972.757ZM518 946H508V923.969C509.664 923.989 511.331 924 513 924C514.669 924 516.336 923.989 518 923.969V946ZM101.045 506C101.016 507.997 101 509.997 101 512C101 513.335 101.009 514.668 101.021 516H73V506H101.045ZM951 516H924.979C924.991 514.668 925 513.335 925 512C925 509.997 924.984 507.997 924.955 506H951V516ZM482 53.3818C448.559 55.3665 416.08 60.9233 384.938 69.6768L393.249 100.689C391.966 101.059 390.686 101.434 389.408 101.815L381.091 70.7734C343.493 81.6981 307.883 97.2946 274.929 116.889L291.289 145.225C290.146 145.914 289.006 146.605 287.87 147.305L271.498 118.947C238.367 139.038 207.976 163.195 181.016 190.725L204.543 214.252C203.615 215.21 202.691 216.172 201.772 217.139L178.228 193.594C151.569 221.289 128.348 252.318 109.253 285.993L138.484 302.87C137.832 304.033 137.186 305.199 136.544 306.368L107.297 289.482C88.7848 322.803 74.2918 358.663 64.4717 396.409L97.4229 405.239C97.0915 406.53 96.7669 407.823 96.4473 409.118L63.4795 400.284C56.8558 426.691 52.5174 454.004 50.6816 482H46.6709C51.2387 411.75 71.4401 345.762 103.831 287.481L103.753 287.437L105.753 283.973L105.788 283.993C145.037 214.787 201.561 156.664 269.497 115.482L269.42 115.348L272.885 113.348L272.929 113.424C334.792 76.6499 405.933 53.8503 482 49.375V53.3818ZM542 49.6709C773.09 65.5708 957.646 250.675 972.687 482H968.678C966.795 453.294 962.279 425.307 955.369 398.277L926.756 405.944C926.426 404.652 926.091 403.361 925.75 402.073L954.362 394.406C944.204 356.076 929.223 319.708 910.105 285.993L884.374 300.849C883.715 299.689 883.05 298.534 882.381 297.381L908.115 282.522C888.454 248.541 864.571 217.308 837.183 189.542L816 210.725C815.061 209.778 814.118 208.835 813.171 207.896L834.36 186.706C806.775 159.219 775.719 135.213 741.908 115.4L726.732 141.685C725.58 141.015 724.424 140.351 723.265 139.691L738.449 113.392C704.993 94.1762 668.892 79.0474 630.827 68.6826L622.84 98.4932C621.552 98.1489 620.263 97.8081 618.971 97.4756L626.963 67.6475C599.557 60.4426 571.153 55.704 542 53.6807V49.6709ZM518 100.03C516.336 100.01 514.669 100 513 100C511.331 100 509.664 100.01 508 100.03V76H518V100.03Z" fill="#62827A"/>
<path d="M501.016 65V39.08H506.776L521.284 56.36V39.08H526.936V65H521.176L506.596 47.648V65H501.016Z" fill="#45E0C7"/>
<path d="M504.272 982C503.312 982 502.424 981.76 501.608 981.28C500.792 980.8 500.144 980.152 499.664 979.336C499.184 978.52 498.944 977.632 498.944 976.672V974.26H504.524V976.384H519.212V971.848H504.272C503.312 971.848 502.424 971.608 501.608 971.128C500.792 970.648 500.144 970.012 499.664 969.22C499.184 968.404 498.944 967.504 498.944 966.52V961.408C498.944 960.424 499.184 959.536 499.664 958.744C500.144 957.928 500.792 957.28 501.608 956.8C502.424 956.32 503.312 956.08 504.272 956.08H519.536C520.496 956.08 521.372 956.32 522.164 956.8C522.98 957.28 523.628 957.928 524.108 958.744C524.612 959.536 524.864 960.424 524.864 961.408V963.82H519.212V961.696H504.524V966.232H519.536C520.496 966.232 521.372 966.472 522.164 966.952C522.98 967.432 523.628 968.08 524.108 968.896C524.612 969.688 524.864 970.576 524.864 971.56V976.672C524.864 977.632 524.612 978.52 524.108 979.336C523.628 980.152 522.98 980.8 522.164 981.28C521.372 981.76 520.496 982 519.536 982H504.272Z" fill="#45E0C7"/>
<path d="M963 500.088H988.92V524.028H983.304V505.74H978.768V520.464H973.152V505.74H968.616V524.028H963V500.088Z" fill="#45E0C7"/>
<path d="M63 521.308L37.08 530.74V524.8L52.524 519.148L37.08 513.496V508.348L52.524 502.66L37.08 497.008V491.104L63 500.536V504.82L46.332 510.94L63 517.024V521.308Z" fill="#45E0C7"/>
</svg>
