<svg width="144" height="144" viewBox="0 0 144 144" fill="none" xmlns="http://www.w3.org/2000/svg">
<g clip-path="url(#clip0_74_30)">
<circle cx="72" cy="72" r="71" stroke="#4B5D63" stroke-width="2"/>
<rect x="71" y="2" width="2" height="8" fill="#4B5D63"/>
<rect x="71" y="134" width="2" height="8" fill="#4B5D63"/>
<rect x="2" y="73" width="2" height="8" transform="rotate(-90 2 73)" fill="#4B5D63"/>
<rect x="134" y="73" width="2" height="8" transform="rotate(-90 134 73)" fill="#4B5D63"/>
<rect x="36.134" y="11.8782" width="2" height="6" transform="rotate(-30 36.134 11.8782)" fill="#4B5D63"/>
<rect x="107.866" y="132.122" width="2" height="6" transform="rotate(150 107.866 132.122)" fill="#4B5D63"/>
<rect x="10.8783" y="37.866" width="2" height="6" transform="rotate(-60 10.8783 37.866)" fill="#4B5D63"/>
<rect x="133.122" y="106.134" width="2" height="6" transform="rotate(120 133.122 106.134)" fill="#4B5D63"/>
<rect x="106.134" y="10.8782" width="2" height="6" transform="rotate(30 106.134 10.8782)" fill="#4B5D63"/>
<rect x="37.8661" y="133.122" width="2" height="6" transform="rotate(-150 37.8661 133.122)" fill="#4B5D63"/>
<rect x="132.122" y="36.134" width="2" height="6" transform="rotate(60 132.122 36.134)" fill="#4B5D63"/>
<rect x="11.8783" y="107.866" width="2" height="6" transform="rotate(-120 11.8783 107.866)" fill="#4B5D63"/>
<path d="M16.628 72.088H18.308V70.192C18.308 69.6 18.016 69.304 17.432 69.304H16.628C16.052 69.304 15.764 69.6 15.764 70.192V71.212C15.764 71.796 16.052 72.088 16.628 72.088ZM17.6 76H15.164C15.012 76 14.936 75.932 14.936 75.796V75.172C14.936 75.044 15.012 74.98 15.164 74.98H17.432C18.008 74.98 18.296 74.684 18.296 74.092V73.12H16.448C15.856 73.12 15.396 72.96 15.068 72.64C14.74 72.312 14.576 71.856 14.576 71.272V70.144C14.576 69.552 14.74 69.096 15.068 68.776C15.396 68.448 15.856 68.284 16.448 68.284H17.6C18.192 68.284 18.652 68.448 18.98 68.776C19.308 69.096 19.472 69.552 19.472 70.144V74.14C19.472 74.724 19.308 75.18 18.98 75.508C18.652 75.836 18.192 76 17.6 76ZM21.7238 74.98H22.5758C23.1518 74.98 23.4398 74.684 23.4398 74.092V70.192C23.4398 69.6 23.1518 69.304 22.5758 69.304H21.7238C21.1478 69.304 20.8598 69.6 20.8598 70.192V74.092C20.8598 74.684 21.1478 74.98 21.7238 74.98ZM22.7438 76H21.5438C20.9518 76 20.4918 75.836 20.1638 75.508C19.8358 75.18 19.6718 74.724 19.6718 74.14V70.144C19.6718 69.552 19.8358 69.096 20.1638 68.776C20.4918 68.448 20.9518 68.284 21.5438 68.284H22.7438C23.3278 68.284 23.7838 68.448 24.1118 68.776C24.4398 69.096 24.6038 69.552 24.6038 70.144V74.14C24.6038 74.724 24.4398 75.18 24.1118 75.508C23.7838 75.836 23.3278 76 22.7438 76Z" fill="#4B5D63"/>
<path d="M121.628 72.088H123.308V70.192C123.308 69.6 123.016 69.304 122.432 69.304H121.628C121.052 69.304 120.764 69.6 120.764 70.192V71.212C120.764 71.796 121.052 72.088 121.628 72.088ZM122.6 76H120.164C120.012 76 119.936 75.932 119.936 75.796V75.172C119.936 75.044 120.012 74.98 120.164 74.98H122.432C123.008 74.98 123.296 74.684 123.296 74.092V73.12H121.448C120.856 73.12 120.396 72.96 120.068 72.64C119.74 72.312 119.576 71.856 119.576 71.272V70.144C119.576 69.552 119.74 69.096 120.068 68.776C120.396 68.448 120.856 68.284 121.448 68.284H122.6C123.192 68.284 123.652 68.448 123.98 68.776C124.308 69.096 124.472 69.552 124.472 70.144V74.14C124.472 74.724 124.308 75.18 123.98 75.508C123.652 75.836 123.192 76 122.6 76ZM126.724 74.98H127.576C128.152 74.98 128.44 74.684 128.44 74.092V70.192C128.44 69.6 128.152 69.304 127.576 69.304H126.724C126.148 69.304 125.86 69.6 125.86 70.192V74.092C125.86 74.684 126.148 74.98 126.724 74.98ZM127.744 76H126.544C125.952 76 125.492 75.836 125.164 75.508C124.836 75.18 124.672 74.724 124.672 74.14V70.144C124.672 69.552 124.836 69.096 125.164 68.776C125.492 68.448 125.952 68.284 126.544 68.284H127.744C128.328 68.284 128.784 68.448 129.112 68.776C129.44 69.096 129.604 69.552 129.604 70.144V74.14C129.604 74.724 129.44 75.18 129.112 75.508C128.784 75.836 128.328 76 127.744 76Z" fill="#4B5D63"/>
<path d="M24.4352 103.77L25.1419 103.362C25.6407 103.074 25.7421 102.674 25.4461 102.161L24.9661 101.33C24.6701 100.817 24.2727 100.705 23.7739 100.993L22.3189 101.833L23.2429 103.433C23.5389 103.946 23.9364 104.058 24.4352 103.77ZM25.7974 104.161L24.7997 104.737C24.287 105.033 23.8066 105.121 23.3586 105.001C22.9105 104.881 22.5405 104.568 22.2485 104.063L20.2505 100.602C19.9545 100.089 19.8685 99.6123 19.9926 99.1712C20.1126 98.7231 20.429 98.3511 20.9417 98.0551L23.0098 96.8611C23.1275 96.7931 23.2204 96.818 23.2884 96.9358L23.6004 97.4762C23.6644 97.587 23.6375 97.6765 23.5198 97.7445L21.5972 98.8545C21.0984 99.1425 20.9969 99.5428 21.2929 100.055L21.8089 100.949L23.4094 100.025C23.922 99.7292 24.4024 99.6413 24.8505 99.7613C25.2945 99.8744 25.6646 100.187 25.9606 100.7L26.4886 101.615C26.7806 102.12 26.8665 102.597 26.7465 103.045C26.6264 103.493 26.31 103.865 25.7974 104.161ZM28.7963 101.252L29.5342 100.826C30.033 100.538 30.1344 100.138 29.8384 99.6251L27.8884 96.2476C27.5924 95.7349 27.195 95.6226 26.6962 95.9106L25.9583 96.3366C25.4595 96.6246 25.3581 97.0249 25.6541 97.5376L27.6041 100.915C27.9001 101.428 28.2975 101.54 28.7963 101.252ZM30.1896 101.625L29.1504 102.225C28.6377 102.521 28.1574 102.609 27.7093 102.489C27.2612 102.369 26.8912 102.056 26.5992 101.551L24.6012 98.09C24.3052 97.5773 24.2192 97.1004 24.3433 96.6593C24.4634 96.2113 24.7797 95.8392 25.2924 95.5432L26.3316 94.9432C26.8374 94.6512 27.3143 94.5653 27.7624 94.6853C28.2064 94.7984 28.5765 95.1113 28.8725 95.624L30.8705 99.0847C31.1625 99.5904 31.2484 100.067 31.1284 100.515C31.0083 100.963 30.6954 101.333 30.1896 101.625Z" fill="#4B5D63"/>
<path d="M118.2 49.3637L118.907 48.9557C119.406 48.6677 119.507 48.2674 119.211 47.7547L118.731 46.9233C118.435 46.4106 118.038 46.2983 117.539 46.5863L116.084 47.4263L117.008 49.0267C117.304 49.5394 117.702 49.6517 118.2 49.3637ZM119.563 49.755L118.565 50.331C118.052 50.627 117.572 50.715 117.124 50.595C116.676 50.4749 116.306 50.162 116.014 49.6562L114.016 46.1956C113.72 45.6829 113.634 45.206 113.758 44.7649C113.878 44.3168 114.194 43.9448 114.707 43.6488L116.775 42.4548C116.893 42.3868 116.986 42.4117 117.054 42.5295L117.366 43.0699C117.43 43.1807 117.403 43.2701 117.285 43.3381L115.362 44.4481C114.864 44.7361 114.762 45.1365 115.058 45.6492L115.574 46.5429L117.175 45.6189C117.687 45.3229 118.168 45.2349 118.616 45.355C119.06 45.4681 119.43 45.781 119.726 46.2937L120.254 47.2082C120.546 47.714 120.632 48.1909 120.512 48.639C120.392 49.087 120.075 49.459 119.563 49.755ZM122.562 46.8458L123.299 46.4198C123.798 46.1318 123.9 45.7315 123.604 45.2188L121.654 41.8413C121.358 41.3286 120.96 41.2162 120.461 41.5042L119.724 41.9302C119.225 42.2182 119.123 42.6186 119.419 43.1313L121.369 46.5088C121.665 47.0215 122.063 47.1338 122.562 46.8458ZM123.955 47.2192L122.916 47.8192C122.403 48.1152 121.923 48.2031 121.475 48.0831C121.027 47.963 120.656 47.6501 120.364 47.1443L118.366 43.6837C118.07 43.171 117.985 42.6941 118.109 42.253C118.229 41.8049 118.545 41.4329 119.058 41.1369L120.097 40.5369C120.603 40.2449 121.08 40.1589 121.528 40.279C121.972 40.3921 122.342 40.705 122.638 41.2177L124.636 44.6783C124.928 45.1841 125.014 45.661 124.894 46.1091C124.774 46.5571 124.461 46.9272 123.955 47.2192Z" fill="#4B5D63"/>
<path d="M22.817 43.437L20.7593 42.249C20.6415 42.181 20.6186 42.0847 20.6906 41.96L20.9546 41.5027C21.0266 41.378 21.1215 41.3496 21.2393 41.4176L23.297 42.6056C23.4147 42.6736 23.4376 42.77 23.3656 42.8947L23.1016 43.352C23.0296 43.4767 22.9347 43.505 22.817 43.437ZM23.529 46.5363L24.2357 46.9443C24.7345 47.2323 25.1319 47.1199 25.4279 46.6072L25.9079 45.7759C26.2039 45.2632 26.1025 44.8628 25.6037 44.5748L24.1488 43.7348L23.2248 45.3352C22.9288 45.8479 23.0302 46.2483 23.529 46.5363ZM23.8712 47.9116L22.8735 47.3356C22.3608 47.0396 22.0445 46.6676 21.9244 46.2195C21.8043 45.7715 21.8903 45.2946 22.1823 44.7888L24.1803 41.3282C24.4763 40.8155 24.8463 40.5026 25.2904 40.3894C25.7385 40.2694 26.2188 40.3574 26.7315 40.6534L28.7996 41.8474C28.9174 41.9154 28.9423 42.0083 28.8743 42.126L28.5623 42.6664C28.4983 42.7773 28.4074 42.7987 28.2896 42.7307L26.367 41.6207C25.8682 41.3327 25.4708 41.4451 25.1748 41.9577L24.6588 42.8515L26.2592 43.7755C26.7719 44.0715 27.0882 44.4435 27.2083 44.8916C27.3324 45.3327 27.2464 45.8096 26.9504 46.3223L26.4224 47.2368C26.1304 47.7426 25.7604 48.0555 25.3123 48.1755C24.8642 48.2956 24.3839 48.2076 23.8712 47.9116ZM27.8901 49.0542L28.628 49.4802C29.1268 49.7682 29.5242 49.6558 29.8202 49.1431L31.7702 45.7656C32.0662 45.2529 31.9648 44.8526 31.466 44.5646L30.7281 44.1386C30.2293 43.8506 29.8319 43.9629 29.5359 44.4756L27.5859 47.8531C27.2899 48.3658 27.3913 48.7662 27.8901 49.0542ZM28.2635 50.4475L27.2242 49.8475C26.7116 49.5515 26.3952 49.1795 26.2751 48.7314C26.1551 48.2834 26.241 47.8065 26.533 47.3007L28.531 43.8401C28.827 43.3274 29.1971 43.0145 29.6411 42.9013C30.0892 42.7813 30.5696 42.8693 31.0822 43.1653L32.1215 43.7653C32.6272 44.0573 32.9401 44.4273 33.0602 44.8753C33.1843 45.3165 33.0983 45.7934 32.8023 46.3061L30.8043 49.7667C30.5123 50.2725 30.1423 50.5854 29.6942 50.7054C29.2461 50.8255 28.7692 50.7395 28.2635 50.4475Z" fill="#4B5D63"/>
<path d="M114.831 96.5451L112.773 95.3571C112.656 95.2891 112.633 95.1928 112.705 95.0681L112.969 94.6108C113.041 94.4861 113.136 94.4577 113.253 94.5257L115.311 95.7137C115.429 95.7817 115.452 95.8781 115.38 96.0028L115.116 96.4601C115.044 96.5848 114.949 96.6131 114.831 96.5451ZM115.543 99.6444L116.25 100.052C116.749 100.34 117.146 100.228 117.442 99.7153L117.922 98.884C118.218 98.3713 118.117 97.9709 117.618 97.6829L116.163 96.8429L115.239 98.4433C114.943 98.956 115.044 99.3564 115.543 99.6444ZM115.885 101.02L114.888 100.444C114.375 100.148 114.059 99.7757 113.939 99.3276C113.819 98.8796 113.904 98.4027 114.196 97.8969L116.194 94.4363C116.49 93.9236 116.861 93.6107 117.305 93.4975C117.753 93.3775 118.233 93.4655 118.746 93.7615L120.814 94.9555C120.932 95.0235 120.956 95.1164 120.888 95.2341L120.576 95.7745C120.512 95.8854 120.422 95.9068 120.304 95.8388L118.381 94.7288C117.882 94.4408 117.485 94.5532 117.189 95.0658L116.673 95.9596L118.273 96.8836C118.786 97.1796 119.102 97.5516 119.222 97.9997C119.347 98.4408 119.261 98.9177 118.965 99.4304L118.437 100.345C118.145 100.851 117.775 101.164 117.326 101.284C116.878 101.404 116.398 101.316 115.885 101.02ZM119.904 102.162L120.642 102.588C121.141 102.876 121.538 102.764 121.834 102.251L123.784 98.8737C124.08 98.361 123.979 97.9607 123.48 97.6727L122.742 97.2467C122.243 96.9587 121.846 97.071 121.55 97.5837L119.6 100.961C119.304 101.474 119.405 101.874 119.904 102.162ZM120.278 103.556L119.238 102.956C118.726 102.66 118.409 102.288 118.289 101.84C118.169 101.391 118.255 100.915 118.547 100.409L120.545 96.9482C120.841 96.4355 121.211 96.1226 121.655 96.0094C122.103 95.8894 122.584 95.9774 123.096 96.2734L124.136 96.8734C124.641 97.1654 124.954 97.5354 125.074 97.9834C125.198 98.4246 125.112 98.9015 124.816 99.4142L122.818 102.875C122.526 103.381 122.156 103.693 121.708 103.814C121.26 103.934 120.783 103.848 120.278 103.556Z" fill="#4B5D63"/>
<path d="M42.7116 123.782L43.0416 123.211C43.3376 122.698 43.2327 122.296 42.727 122.004L42.1866 121.692C41.6877 121.404 41.2903 121.516 40.9943 122.029L40.6403 122.642C40.4923 122.898 40.4412 123.123 40.487 123.316C40.5368 123.501 40.6933 123.67 40.9566 123.822L41.2579 123.996C41.3757 124.064 41.4006 124.157 41.3326 124.275L40.9486 124.94C40.8806 125.058 40.7877 125.083 40.6699 125.015L40.3478 124.829C39.842 124.537 39.5326 124.169 39.4194 123.725C39.3063 123.28 39.3977 122.802 39.6937 122.289L40.2157 121.385C40.5117 120.873 40.8803 120.554 41.3214 120.43C41.7626 120.306 42.236 120.39 42.7418 120.682L43.3133 121.012C43.923 121.364 44.151 121.865 43.9973 122.515C44.4489 122.037 44.9969 121.984 45.6412 122.356L46.244 122.704C46.7497 122.996 47.0592 123.364 47.1723 123.808C47.2854 124.252 47.194 124.731 46.898 125.243L46.376 126.147C46.08 126.66 45.7114 126.978 45.2703 127.103C44.8292 127.227 44.3557 127.143 43.85 126.851L43.4862 126.641C43.3615 126.569 43.3332 126.474 43.4012 126.356L43.7852 125.691C43.8532 125.573 43.9495 125.55 44.0742 125.622L44.4172 125.82C44.6735 125.968 44.8981 126.019 45.0908 125.974C45.2805 125.917 45.4494 125.76 45.5974 125.504L45.9514 124.891C46.2474 124.378 46.146 123.978 45.6472 123.69L45.0756 123.36C44.5699 123.068 44.169 123.178 43.873 123.691L43.543 124.262C43.475 124.38 43.3821 124.405 43.2643 124.337L42.7967 124.067C42.6719 123.995 42.6436 123.9 42.7116 123.782ZM48.0721 121.17L48.4981 120.432C48.7861 119.933 48.6737 119.536 48.1611 119.24L44.7836 117.29C44.2709 116.994 43.8705 117.095 43.5825 117.594L43.1565 118.332C42.8685 118.831 42.9809 119.228 43.4936 119.524L46.8711 121.474C47.3837 121.77 47.7841 121.669 48.0721 121.17ZM49.4654 120.796L48.8654 121.836C48.5694 122.348 48.1974 122.665 47.7494 122.785C47.3013 122.905 46.8244 122.819 46.3186 122.527L42.858 120.529C42.3453 120.233 42.0324 119.863 41.9193 119.419C41.7992 118.971 41.8872 118.49 42.1832 117.978L42.7832 116.938C43.0752 116.433 43.4452 116.12 43.8933 116C44.3344 115.876 44.8113 115.962 45.324 116.258L48.7846 118.256C49.2904 118.548 49.6033 118.918 49.7234 119.366C49.8434 119.814 49.7574 120.291 49.4654 120.796Z" fill="#4B5D63"/>
<path d="M97.9841 29.517L98.3141 28.9454C98.6101 28.4327 98.5052 28.0304 97.9994 27.7384L97.459 27.4264C96.9602 27.1384 96.5628 27.2507 96.2668 27.7634L95.9128 28.3766C95.7648 28.6329 95.7137 28.8574 95.7594 29.0501C95.8092 29.2359 95.9657 29.4048 96.229 29.5568L96.5304 29.7308C96.6482 29.7988 96.6731 29.8917 96.6051 30.0095L96.2211 30.6746C96.1531 30.7924 96.0602 30.8173 95.9424 30.7493L95.6202 30.5633C95.1145 30.2713 94.805 29.9032 94.6919 29.4592C94.5788 29.0151 94.6702 28.5367 94.9662 28.0241L95.4882 27.1199C95.7842 26.6072 96.1528 26.2889 96.5939 26.1648C97.035 26.0408 97.5085 26.1247 98.0142 26.4167L98.5858 26.7467C99.1955 27.0987 99.4235 27.5999 99.2697 28.2501C99.7214 27.7719 100.269 27.7187 100.914 28.0907L101.516 28.4387C102.022 28.7307 102.332 29.0988 102.445 29.5428C102.558 29.9869 102.466 30.4652 102.17 30.9779L101.648 31.8821C101.352 32.3947 100.984 32.7131 100.543 32.8372C100.102 32.9612 99.6282 32.8773 99.1224 32.5853L98.7587 32.3753C98.634 32.3033 98.6056 32.2084 98.6736 32.0906L99.0576 31.4255C99.1256 31.3077 99.222 31.2848 99.3467 31.3568L99.6897 31.5548C99.946 31.7028 100.171 31.7539 100.363 31.7081C100.553 31.6514 100.722 31.4949 100.87 31.2386L101.224 30.6254C101.52 30.1127 101.418 29.7124 100.92 29.4244L100.348 29.0944C99.8423 28.8024 99.4414 28.9127 99.1454 29.4254L98.8154 29.997C98.7474 30.1148 98.6545 30.1397 98.5368 30.0717L98.0691 29.8017C97.9444 29.7297 97.9161 29.6348 97.9841 29.517ZM103.345 26.9043L103.771 26.1665C104.059 25.6677 103.946 25.2702 103.434 24.9742L100.056 23.0242C99.5433 22.7282 99.143 22.8297 98.855 23.3285L98.429 24.0663C98.141 24.5652 98.2533 24.9626 98.766 25.2586L102.144 27.2086C102.656 27.5046 103.057 27.4032 103.345 26.9043ZM104.738 26.531L104.138 27.5702C103.842 28.0829 103.47 28.3993 103.022 28.5193C102.574 28.6394 102.097 28.5534 101.591 28.2614L98.1305 26.2634C97.6178 25.9674 97.3049 25.5974 97.1917 25.1533C97.0717 24.7053 97.1596 24.2249 97.4556 23.7122L98.0556 22.673C98.3476 22.1672 98.7177 21.8543 99.1657 21.7343C99.6069 21.6102 100.084 21.6962 100.596 21.9922L104.057 23.9902C104.563 24.2822 104.876 24.6522 104.996 25.1003C105.116 25.5483 105.03 26.0252 104.738 26.531Z" fill="#4B5D63"/>
<path d="M42.9752 22.6609L41.7872 20.6032C41.7192 20.4854 41.7475 20.3905 41.8723 20.3185L42.3295 20.0545C42.4542 19.9825 42.5506 20.0054 42.6186 20.1232L43.8066 22.1809C43.8746 22.2986 43.8462 22.3935 43.7215 22.4655L43.2643 22.7295C43.1395 22.8015 43.0432 22.7786 42.9752 22.6609ZM45.1533 24.4174L45.4833 24.989C45.7793 25.5017 46.1802 25.612 46.6859 25.32L47.2263 25.008C47.7252 24.72 47.8266 24.3197 47.5306 23.807L47.1766 23.1939C47.0286 22.9375 46.8597 22.781 46.6699 22.7243C46.4841 22.6745 46.2596 22.7256 45.9963 22.8776L45.6949 23.0516C45.5772 23.1196 45.4843 23.0947 45.4163 22.977L45.0323 22.3118C44.9643 22.1941 44.9892 22.1012 45.1069 22.0332L45.4291 21.8472C45.9349 21.5552 46.4083 21.4712 46.8494 21.5953C47.2906 21.7193 47.6591 22.0377 47.9551 22.5504L48.4771 23.4545C48.7731 23.9672 48.8646 24.4456 48.7514 24.8896C48.6383 25.3337 48.3289 25.7017 47.8231 25.9937L47.2515 26.3237C46.6418 26.6757 46.0939 26.6226 45.6076 26.1643C45.796 26.7946 45.568 27.2957 44.9237 27.6677L44.3209 28.0157C43.8151 28.3077 43.3417 28.3917 42.9006 28.2676C42.4594 28.1436 42.0909 27.8252 41.7949 27.3125L41.2729 26.4084C40.9769 25.8957 40.8854 25.4173 40.9986 24.9733C41.1117 24.5292 41.4211 24.1612 41.9269 23.8692L42.2906 23.6592C42.4153 23.5872 42.5117 23.6101 42.5797 23.7278L42.9637 24.393C43.0317 24.5107 43.0033 24.6056 42.8786 24.6776L42.5357 24.8756C42.2793 25.0236 42.1228 25.1925 42.0661 25.3823C42.0203 25.575 42.0714 25.7995 42.2194 26.0559L42.5734 26.669C42.8694 27.1817 43.2669 27.294 43.7657 27.006L44.3373 26.676C44.843 26.384 44.9479 25.9817 44.6519 25.469L44.3219 24.8974C44.2539 24.7797 44.2788 24.6868 44.3966 24.6188L44.8642 24.3488C44.9889 24.2768 45.0853 24.2997 45.1533 24.4174ZM44.7357 30.3661L45.1617 31.1039C45.4497 31.6028 45.85 31.7042 46.3627 31.4082L49.7402 29.4582C50.2529 29.1622 50.3652 28.7648 50.0772 28.2659L49.6512 27.5281C49.3632 27.0293 48.9629 26.9278 48.4502 27.2238L45.0727 29.1738C44.56 29.4698 44.4477 29.8673 44.7357 30.3661ZM44.3623 31.7594L43.7623 30.7202C43.4663 30.2075 43.3783 29.7271 43.4984 29.2791C43.6185 28.831 43.9314 28.461 44.4371 28.169L47.8978 26.171C48.4104 25.875 48.8874 25.789 49.3285 25.9131C49.7765 26.0331 50.1486 26.3495 50.4446 26.8622L51.0446 27.9014C51.3366 28.4072 51.4225 28.8841 51.3025 29.3322C51.1894 29.7762 50.8764 30.1462 50.3638 30.4422L46.9031 32.4402C46.3974 32.7322 45.9205 32.8182 45.4724 32.6982C45.0243 32.5781 44.6543 32.2652 44.3623 31.7594Z" fill="#4B5D63"/>
<path d="M95.6156 113.097L94.4276 111.039C94.3596 110.922 94.3879 110.827 94.5126 110.755L94.9699 110.491C95.0946 110.419 95.191 110.442 95.259 110.559L96.447 112.617C96.515 112.735 96.4866 112.83 96.3619 112.902L95.9046 113.166C95.7799 113.238 95.6836 113.215 95.6156 113.097ZM97.8537 114.958L98.1837 115.529C98.4797 116.042 98.8805 116.152 99.3863 115.86L99.9267 115.548C100.426 115.26 100.527 114.86 100.231 114.347L99.8769 113.734C99.7289 113.478 99.5601 113.321 99.3703 113.265C99.1845 113.215 98.96 113.266 98.6967 113.418L98.3953 113.592C98.2775 113.66 98.1847 113.635 98.1167 113.517L97.7327 112.852C97.6647 112.734 97.6895 112.641 97.8073 112.573L98.1295 112.387C98.6352 112.095 99.1087 112.011 99.5498 112.135C99.9909 112.26 100.36 112.578 100.656 113.091L101.178 113.995C101.474 114.507 101.565 114.986 101.452 115.43C101.339 115.874 101.029 116.242 100.523 116.534L99.9519 116.864C99.3422 117.216 98.7943 117.163 98.308 116.705C98.4963 117.335 98.2684 117.836 97.624 118.208L97.0213 118.556C96.5155 118.848 96.0421 118.932 95.601 118.808C95.1598 118.684 94.7913 118.365 94.4953 117.853L93.9733 116.949C93.6773 116.436 93.5858 115.958 93.699 115.513C93.8121 115.069 94.1215 114.701 94.6273 114.409L94.991 114.199C95.1157 114.127 95.2121 114.15 95.2801 114.268L95.6641 114.933C95.7321 115.051 95.7037 115.146 95.579 115.218L95.2361 115.416C94.9797 115.564 94.8232 115.733 94.7665 115.923C94.7207 116.115 94.7718 116.34 94.9198 116.596L95.2738 117.209C95.5698 117.722 95.9672 117.834 96.4661 117.546L97.0376 117.216C97.5434 116.924 97.6483 116.522 97.3523 116.009L97.0223 115.438C96.9543 115.32 96.9792 115.227 97.097 115.159L97.5646 114.889C97.6893 114.817 97.7857 114.84 97.8537 114.958ZM97.736 121.426L98.162 122.164C98.45 122.663 98.8504 122.764 99.3631 122.468L102.741 120.518C103.253 120.222 103.366 119.825 103.078 119.326L102.652 118.588C102.364 118.089 101.963 117.988 101.451 118.284L98.0731 120.234C97.5604 120.53 97.448 120.927 97.736 121.426ZM97.3627 122.819L96.7627 121.78C96.4667 121.267 96.3787 120.787 96.4988 120.339C96.6188 119.891 96.9317 119.521 97.4375 119.229L100.898 117.231C101.411 116.935 101.888 116.849 102.329 116.973C102.777 117.093 103.149 117.409 103.445 117.922L104.045 118.961C104.337 119.467 104.423 119.944 104.303 120.392C104.19 120.836 103.877 121.206 103.364 121.502L99.9035 123.5C99.3977 123.792 98.9208 123.878 98.4728 123.758C98.0247 123.638 97.6547 123.325 97.3627 122.819Z" fill="#4B5D63"/>
<path d="M71.748 128.98H72.6C73.176 128.98 73.464 128.684 73.464 128.092V124.192C73.464 123.6 73.176 123.304 72.6 123.304H71.748C71.172 123.304 70.884 123.6 70.884 124.192V128.092C70.884 128.684 71.172 128.98 71.748 128.98ZM72.768 130H71.568C70.976 130 70.516 129.836 70.188 129.508C69.86 129.18 69.696 128.724 69.696 128.14V124.144C69.696 123.552 69.86 123.096 70.188 122.776C70.516 122.448 70.976 122.284 71.568 122.284H72.768C73.352 122.284 73.808 122.448 74.136 122.776C74.464 123.096 74.628 123.552 74.628 124.144V128.14C74.628 128.724 74.464 129.18 74.136 129.508C73.808 129.836 73.352 130 72.768 130Z" fill="#4B5D63"/>
<path d="M71.748 21.98H72.6C73.176 21.98 73.464 21.684 73.464 21.092V17.192C73.464 16.6 73.176 16.304 72.6 16.304H71.748C71.172 16.304 70.884 16.6 70.884 17.192V21.092C70.884 21.684 71.172 21.98 71.748 21.98ZM72.768 23H71.568C70.976 23 70.516 22.836 70.188 22.508C69.86 22.18 69.696 21.724 69.696 21.14V17.144C69.696 16.552 69.86 16.096 70.188 15.776C70.516 15.448 70.976 15.284 71.568 15.284H72.768C73.352 15.284 73.808 15.448 74.136 15.776C74.464 16.096 74.628 16.552 74.628 17.144V21.14C74.628 21.724 74.464 22.18 74.136 22.508C73.808 22.836 73.352 23 72.768 23Z" fill="#4B5D63"/>
</g>
<defs>
<clipPath id="clip0_74_30">
<rect width="144" height="144" fill="white"/>
</clipPath>
</defs>
</svg>
