<svg width="160" height="160" viewBox="0 0 160 160" fill="none" xmlns="http://www.w3.org/2000/svg">
<g clip-path="url(#clip0_66_2)">
<circle cx="80" cy="80" r="78.8889" stroke="#4B5D63" stroke-width="2.22222"/>
<rect x="78.8889" y="2.22222" width="2.22222" height="8.88889" fill="#4B5D63"/>
<rect x="78.8889" y="148.889" width="2.22222" height="8.88889" fill="#4B5D63"/>
<rect x="2.22223" y="81.1111" width="2.22222" height="8.88889" transform="rotate(-90 2.22223 81.1111)" fill="#4B5D63"/>
<rect x="148.889" y="81.1111" width="2.22222" height="8.88889" transform="rotate(-90 148.889 81.1111)" fill="#4B5D63"/>
<rect x="40.1489" y="13.198" width="2.22222" height="6.66667" transform="rotate(-30 40.1489 13.198)" fill="#4B5D63"/>
<rect x="119.851" y="146.802" width="2.22222" height="6.66667" transform="rotate(150 119.851 146.802)" fill="#4B5D63"/>
<rect x="12.087" y="42.0734" width="2.22222" height="6.66667" transform="rotate(-60 12.087 42.0734)" fill="#4B5D63"/>
<rect x="147.913" y="117.927" width="2.22222" height="6.66667" transform="rotate(120 147.913 117.927)" fill="#4B5D63"/>
<rect x="117.927" y="12.0869" width="2.22222" height="6.66667" transform="rotate(30 117.927 12.0869)" fill="#4B5D63"/>
<rect x="42.0735" y="147.913" width="2.22222" height="6.66667" transform="rotate(-150 42.0735 147.913)" fill="#4B5D63"/>
<rect x="146.802" y="40.1489" width="2.22222" height="6.66667" transform="rotate(60 146.802 40.1489)" fill="#4B5D63"/>
<rect x="13.1981" y="119.851" width="2.22222" height="6.66667" transform="rotate(-120 13.1981 119.851)" fill="#4B5D63"/>
<path d="M18.6089 82.3111H19.5555C20.1955 82.3111 20.5155 81.9822 20.5155 81.3244V76.9911C20.5155 76.3333 20.1955 76.0044 19.5555 76.0044H18.6089C17.9689 76.0044 17.6489 76.3333 17.6489 76.9911V81.3244C17.6489 81.9822 17.9689 82.3111 18.6089 82.3111ZM19.7422 83.4444H18.4089C17.7511 83.4444 17.24 83.2622 16.8755 82.8978C16.5111 82.5333 16.3289 82.0267 16.3289 81.3778V76.9378C16.3289 76.28 16.5111 75.7733 16.8755 75.4178C17.24 75.0533 17.7511 74.8711 18.4089 74.8711H19.7422C20.3911 74.8711 20.8978 75.0533 21.2622 75.4178C21.6267 75.7733 21.8089 76.28 21.8089 76.9378V81.3778C21.8089 82.0267 21.6267 82.5333 21.2622 82.8978C20.8978 83.2622 20.3911 83.4444 19.7422 83.4444Z" fill="#4B5D63"/>
<path d="M139.72 82.3111H140.667C141.307 82.3111 141.627 81.9822 141.627 81.3244V76.9911C141.627 76.3333 141.307 76.0044 140.667 76.0044H139.72C139.08 76.0044 138.76 76.3333 138.76 76.9911V81.3244C138.76 81.9822 139.08 82.3111 139.72 82.3111ZM140.853 83.4444H139.52C138.862 83.4444 138.351 83.2622 137.987 82.8978C137.622 82.5333 137.44 82.0267 137.44 81.3778V76.9378C137.44 76.28 137.622 75.7733 137.987 75.4178C138.351 75.0533 138.862 74.8711 139.52 74.8711H140.853C141.502 74.8711 142.009 75.0533 142.373 75.4178C142.738 75.7733 142.92 76.28 142.92 76.9378V81.3778C142.92 82.0267 142.738 82.5333 142.373 82.8978C142.009 83.2622 141.502 83.4444 140.853 83.4444Z" fill="#4B5D63"/>
<path d="M24.9163 46.1871L25.5514 46.5538C26.1211 46.8827 26.5681 46.7661 26.8926 46.2042L27.2392 45.6037C27.5592 45.0495 27.4344 44.6079 26.8648 44.279L26.1835 43.8857C25.8987 43.7212 25.6492 43.6644 25.4351 43.7153C25.2287 43.7706 25.041 43.9445 24.8721 44.2371L24.6788 44.5719C24.6032 44.7028 24.5 44.7305 24.3691 44.6549L23.6301 44.2282C23.4993 44.1527 23.4716 44.0495 23.5472 43.9186L23.7538 43.5606C24.0783 42.9987 24.4872 42.6549 24.9806 42.5292C25.474 42.4035 26.0055 42.5051 26.5752 42.8339L27.5798 43.4139C28.1494 43.7428 28.5032 44.1524 28.641 44.6425C28.7788 45.1326 28.6855 45.6587 28.3611 46.2206L27.9944 46.8557C27.6033 47.5331 27.0465 47.7865 26.324 47.6157C26.8554 48.1175 26.9144 48.7263 26.5011 49.4423L26.1144 50.112C25.79 50.6739 25.3811 51.0178 24.8877 51.1435C24.3943 51.2692 23.8627 51.1676 23.2931 50.8387L22.2885 50.2587C21.7188 49.9298 21.3651 49.5203 21.2273 49.0301C21.0894 48.54 21.1827 48.0139 21.5072 47.452L21.7405 47.0478C21.8205 46.9093 21.9259 46.8778 22.0568 46.9533L22.7958 47.38C22.9267 47.4555 22.9521 47.5626 22.8721 47.7012L22.6521 48.0822C22.4877 48.367 22.4309 48.6165 22.4817 48.8306C22.5447 49.0415 22.7187 49.2292 23.0035 49.3936L23.6848 49.7869C24.2544 50.1158 24.6992 50.0031 25.0192 49.4489L25.3859 48.8138C25.7104 48.2518 25.5878 47.8064 25.0181 47.4775L24.383 47.1109C24.2521 47.0353 24.2245 46.9321 24.3 46.8012L24.6 46.2816C24.68 46.1431 24.7855 46.1116 24.9163 46.1871ZM27.8193 52.1432L28.6391 52.6166C29.1934 52.9366 29.635 52.8117 29.9639 52.2421L32.1305 48.4893C32.4594 47.9196 32.3467 47.4748 31.7925 47.1548L30.9726 46.6815C30.4184 46.3615 29.9768 46.4863 29.6479 47.056L27.4812 50.8087C27.1524 51.3784 27.265 51.8232 27.8193 52.1432ZM28.2341 53.6914L27.0794 53.0247C26.5098 52.6958 26.1582 52.2825 26.0249 51.7846C25.8915 51.2868 25.987 50.7569 26.3114 50.1949L28.5314 46.3498C28.8603 45.7801 29.2715 45.4324 29.7649 45.3068C30.2627 45.1734 30.7964 45.2711 31.3661 45.6L32.5208 46.2667C33.0827 46.5911 33.4304 47.0022 33.5638 47.5001C33.7017 47.9902 33.6061 48.5201 33.2772 49.0898L31.0572 52.9349C30.7328 53.4969 30.3217 53.8446 29.8238 53.978C29.326 54.1113 28.7961 54.0158 28.2341 53.6914Z" fill="#4B5D63"/>
<path d="M128.082 105.162L125.796 103.842C125.665 103.766 125.64 103.659 125.72 103.52L126.013 103.012C126.093 102.874 126.198 102.842 126.329 102.918L128.616 104.238C128.747 104.313 128.772 104.42 128.692 104.559L128.399 105.067C128.319 105.206 128.213 105.237 128.082 105.162ZM130.692 105.375L131.327 105.742C131.897 106.071 132.344 105.954 132.668 105.392L133.015 104.792C133.335 104.237 133.21 103.796 132.641 103.467L131.959 103.074C131.675 102.909 131.425 102.852 131.211 102.903C131.004 102.959 130.817 103.132 130.648 103.425L130.455 103.76C130.379 103.891 130.276 103.918 130.145 103.843L129.406 103.416C129.275 103.341 129.247 103.237 129.323 103.107L129.53 102.749C129.854 102.187 130.263 101.843 130.756 101.717C131.25 101.591 131.781 101.693 132.351 102.022L133.356 102.602C133.925 102.931 134.279 103.34 134.417 103.83C134.555 104.321 134.461 104.847 134.137 105.409L133.77 106.044C133.379 106.721 132.822 106.974 132.1 106.804C132.631 107.305 132.69 107.914 132.277 108.63L131.89 109.3C131.566 109.862 131.157 110.206 130.663 110.331C130.17 110.457 129.639 110.355 129.069 110.027L128.064 109.447C127.495 109.118 127.141 108.708 127.003 108.218C126.865 107.728 126.959 107.202 127.283 106.64L127.516 106.236C127.596 106.097 127.702 106.066 127.833 106.141L128.572 106.568C128.703 106.643 128.728 106.751 128.648 106.889L128.428 107.27C128.263 107.555 128.207 107.804 128.258 108.019C128.321 108.229 128.495 108.417 128.779 108.582L129.461 108.975C130.03 109.304 130.475 109.191 130.795 108.637L131.162 108.002C131.486 107.44 131.364 106.994 130.794 106.665L130.159 106.299C130.028 106.223 130 106.12 130.076 105.989L130.376 105.47C130.456 105.331 130.561 105.299 130.692 105.375ZM133.595 111.331L134.415 111.804C134.969 112.124 135.411 112 135.74 111.43L137.906 107.677C138.235 107.108 138.123 106.663 137.568 106.343L136.748 105.869C136.194 105.549 135.753 105.674 135.424 106.244L133.257 109.997C132.928 110.566 133.041 111.011 133.595 111.331ZM134.01 112.879L132.855 112.213C132.286 111.884 131.934 111.47 131.801 110.973C131.667 110.475 131.763 109.945 132.087 109.383L134.307 105.538C134.636 104.968 135.047 104.62 135.541 104.495C136.039 104.361 136.572 104.459 137.142 104.788L138.297 105.455C138.859 105.779 139.206 106.19 139.34 106.688C139.477 107.178 139.382 107.708 139.053 108.278L136.833 112.123C136.509 112.685 136.097 113.032 135.6 113.166C135.102 113.299 134.572 113.204 134.01 112.879Z" fill="#4B5D63"/>
<path d="M25.5845 110.798L23.2982 112.118C23.1673 112.193 23.0619 112.162 22.9819 112.023L22.6885 111.515C22.6085 111.377 22.634 111.269 22.7648 111.194L25.0512 109.874C25.182 109.798 25.2875 109.83 25.3675 109.968L25.6608 110.476C25.7408 110.615 25.7154 110.722 25.5845 110.798ZM27.0744 108.644L27.7094 108.278C28.2791 107.949 28.4017 107.503 28.0772 106.941L27.7306 106.341C27.4106 105.787 26.9658 105.674 26.3961 106.003L25.7148 106.396C25.43 106.561 25.2561 106.748 25.1931 106.959C25.1378 107.166 25.1946 107.415 25.3634 107.708L25.5568 108.042C25.6323 108.173 25.6047 108.276 25.4738 108.352L24.7348 108.779C24.6039 108.854 24.5007 108.827 24.4252 108.696L24.2185 108.338C23.8941 107.776 23.8008 107.25 23.9386 106.76C24.0764 106.269 24.4302 105.86 24.9998 105.531L26.0044 104.951C26.5741 104.622 27.1056 104.521 27.599 104.646C28.0924 104.772 28.5013 105.116 28.8258 105.678L29.1924 106.313C29.5835 106.99 29.5245 107.599 29.0153 108.139C29.7156 107.93 30.2724 108.183 30.6858 108.899L31.0724 109.569C31.3969 110.131 31.4902 110.657 31.3523 111.147C31.2145 111.637 30.8607 112.047 30.2911 112.376L29.2865 112.956C28.7169 113.285 28.1853 113.386 27.6919 113.261C27.1985 113.135 26.7896 112.791 26.4652 112.229L26.2318 111.825C26.1518 111.686 26.1773 111.579 26.3081 111.504L27.0471 111.077C27.178 111.002 27.2834 111.033 27.3634 111.172L27.5834 111.553C27.7479 111.837 27.9355 112.011 28.1464 112.074C28.3605 112.125 28.61 112.068 28.8948 111.904L29.5761 111.511C30.1458 111.182 30.2706 110.74 29.9506 110.186L29.5839 109.551C29.2595 108.989 28.8124 108.872 28.2428 109.201L27.6077 109.568C27.4768 109.644 27.3736 109.616 27.2981 109.485L26.9981 108.965C26.9181 108.827 26.9435 108.72 27.0744 108.644ZM33.684 109.108L34.5038 108.635C35.0581 108.315 35.1707 107.87 34.8419 107.3L32.6752 103.548C32.3463 102.978 31.9047 102.853 31.3505 103.173L30.5306 103.647C29.9764 103.967 29.8637 104.411 30.1926 104.981L32.3592 108.734C32.6881 109.303 33.1297 109.428 33.684 109.108ZM35.2321 109.523L34.0774 110.19C33.5078 110.519 32.974 110.616 32.4762 110.483C31.9783 110.35 31.5672 110.002 31.2428 109.44L29.0228 105.595C28.6939 105.025 28.5983 104.495 28.7362 104.005C28.8696 103.507 29.2211 103.094 29.7908 102.765L30.9455 102.098C31.5074 101.774 32.0373 101.678 32.5352 101.812C33.0285 101.937 33.4397 102.285 33.7686 102.855L35.9886 106.7C36.313 107.262 36.4085 107.792 36.2752 108.29C36.1418 108.787 35.7941 109.199 35.2321 109.523Z" fill="#4B5D63"/>
<path d="M129.076 49.9071L129.711 49.5404C130.281 49.2116 130.404 48.7661 130.079 48.2042L129.733 47.6037C129.413 47.0495 128.968 46.9368 128.398 47.2657L127.717 47.659C127.432 47.8235 127.258 48.0111 127.195 48.222C127.14 48.4284 127.197 48.6779 127.365 48.9704L127.559 49.3053C127.634 49.4361 127.607 49.5393 127.476 49.6149L126.737 50.0416C126.606 50.1171 126.503 50.0895 126.427 49.9586L126.221 49.6006C125.896 49.0387 125.803 48.5126 125.941 48.0225C126.078 47.5324 126.432 47.1228 127.002 46.794L128.006 46.214C128.576 45.8851 129.108 45.7835 129.601 45.9092C130.094 46.0349 130.503 46.3787 130.828 46.9406L131.194 47.5757C131.586 48.2532 131.527 48.862 131.017 49.4023C131.718 49.193 132.274 49.4463 132.688 50.1623L133.074 50.832C133.399 51.3939 133.492 51.92 133.354 52.4101C133.216 52.9003 132.863 53.3098 132.293 53.6387L131.288 54.2187C130.719 54.5476 130.187 54.6492 129.694 54.5235C129.201 54.3978 128.792 54.0539 128.467 53.492L128.234 53.0878C128.154 52.9493 128.179 52.8422 128.31 52.7667L129.049 52.34C129.18 52.2644 129.285 52.2959 129.365 52.4345L129.585 52.8156C129.75 53.1004 129.938 53.2743 130.148 53.3373C130.363 53.3882 130.612 53.3314 130.897 53.1669L131.578 52.7736C132.148 52.4447 132.273 52.0031 131.953 51.4489L131.586 50.8138C131.261 50.2518 130.814 50.1353 130.245 50.4642L129.61 50.8309C129.479 50.9064 129.376 50.8788 129.3 50.7479L129 50.2283C128.92 50.0897 128.945 49.9827 129.076 49.9071ZM135.686 50.3711L136.506 49.8978C137.06 49.5778 137.173 49.133 136.844 48.5633L134.677 44.8105C134.348 44.2409 133.907 44.1161 133.352 44.4361L132.533 44.9094C131.978 45.2294 131.866 45.6742 132.195 46.2439L134.361 49.9967C134.69 50.5663 135.132 50.6911 135.686 50.3711ZM137.234 50.786L136.079 51.4526C135.51 51.7815 134.976 51.8793 134.478 51.7459C133.98 51.6125 133.569 51.2648 133.245 50.7028L131.025 46.8577C130.696 46.288 130.6 45.7581 130.738 45.268C130.872 44.7702 131.223 44.3568 131.793 44.0279L132.947 43.3612C133.509 43.0368 134.039 42.9413 134.537 43.0747C135.031 43.2004 135.442 43.548 135.771 44.1177L137.991 47.9628C138.315 48.5248 138.411 49.0547 138.277 49.5525C138.144 50.0504 137.796 50.4615 137.234 50.786Z" fill="#4B5D63"/>
<path d="M46.5253 25.4087L46.9787 26.1939C47.2987 26.7482 47.7435 26.8609 48.3131 26.532L49.2369 25.9987C49.8066 25.6698 49.9314 25.2282 49.6114 24.6739L48.678 23.0574L46.8998 24.084C46.3302 24.4129 46.2053 24.8545 46.5253 25.4087ZM46.0905 26.9223L45.4505 25.8138C45.1216 25.2441 45.0239 24.7104 45.1573 24.2125C45.2907 23.7147 45.6383 23.3035 46.2003 22.9791L50.0454 20.7591C50.6151 20.4302 51.145 20.3347 51.6351 20.4725C52.133 20.6059 52.5463 20.9574 52.8752 21.5271L54.2019 23.8249C54.2774 23.9558 54.2498 24.059 54.1189 24.1346L53.5185 24.4812C53.3953 24.5524 53.2959 24.5225 53.2204 24.3916L51.9871 22.2554C51.6671 21.7012 51.2222 21.5885 50.6526 21.9174L49.6595 22.4907L50.6862 24.2689C51.0151 24.8386 51.1128 25.3723 50.9794 25.8702C50.8537 26.3636 50.5061 26.7747 49.9364 27.1036L48.9203 27.6903C48.3583 28.0147 47.8284 28.1102 47.3306 27.9768C46.8328 27.8434 46.4194 27.4919 46.0905 26.9223ZM49.323 30.2544L49.7963 31.0743C50.1163 31.6285 50.5611 31.7412 51.1308 31.4123L54.8836 29.2457C55.4532 28.9168 55.578 28.4752 55.258 27.9209L54.7847 27.1011C54.4647 26.5468 54.0199 26.4342 53.4502 26.763L49.6975 28.9297C49.1278 29.2586 49.003 29.7002 49.323 30.2544ZM48.9082 31.8026L48.2415 30.6479C47.9126 30.0782 47.8149 29.5445 47.9482 29.0467C48.0816 28.5488 48.4293 28.1377 48.9913 27.8132L52.8364 25.5932C53.4061 25.2643 53.936 25.1688 54.4261 25.3067C54.924 25.44 55.3373 25.7916 55.6662 26.3612L56.3329 27.5159C56.6573 28.0779 56.7528 28.6078 56.6195 29.1056C56.4938 29.599 56.1461 30.0102 55.5764 30.339L51.7313 32.559C51.1693 32.8835 50.6394 32.979 50.1416 32.8456C49.6437 32.7122 49.2326 32.3645 48.9082 31.8026Z" fill="#4B5D63"/>
<path d="M107.861 127.807L106.541 125.52C106.465 125.39 106.497 125.284 106.636 125.204L107.144 124.911C107.282 124.831 107.389 124.856 107.465 124.987L108.785 127.273C108.86 127.404 108.829 127.51 108.69 127.59L108.182 127.883C108.044 127.963 107.937 127.938 107.861 127.807ZM106.824 131.185L107.278 131.97C107.598 132.524 108.043 132.637 108.612 132.308L109.536 131.774C110.106 131.446 110.23 131.004 109.91 130.45L108.977 128.833L107.199 129.86C106.629 130.189 106.504 130.63 106.824 131.185ZM106.39 132.698L105.75 131.59C105.421 131.02 105.323 130.486 105.456 129.988C105.59 129.49 105.937 129.079 106.499 128.755L110.345 126.535C110.914 126.206 111.444 126.11 111.934 126.248C112.432 126.382 112.845 126.733 113.174 127.303L114.501 129.601C114.577 129.732 114.549 129.835 114.418 129.91L113.818 130.257C113.694 130.328 113.595 130.298 113.519 130.167L112.286 128.031C111.966 127.477 111.521 127.364 110.952 127.693L109.959 128.266L110.985 130.045C111.314 130.614 111.412 131.148 111.279 131.646C111.153 132.139 110.805 132.551 110.235 132.879L109.219 133.466C108.657 133.791 108.128 133.886 107.63 133.753C107.132 133.619 106.718 133.268 106.39 132.698ZM109.622 136.03L110.095 136.85C110.415 137.404 110.86 137.517 111.43 137.188L115.183 135.021C115.752 134.693 115.877 134.251 115.557 133.697L115.084 132.877C114.764 132.323 114.319 132.21 113.749 132.539L109.997 134.706C109.427 135.034 109.302 135.476 109.622 136.03ZM109.207 137.578L108.541 136.424C108.212 135.854 108.114 135.32 108.247 134.822C108.381 134.325 108.728 133.913 109.29 133.589L113.135 131.369C113.705 131.04 114.235 130.945 114.725 131.082C115.223 131.216 115.636 131.567 115.965 132.137L116.632 133.292C116.956 133.854 117.052 134.384 116.919 134.881C116.793 135.375 116.445 135.786 115.875 136.115L112.03 138.335C111.468 138.659 110.938 138.755 110.441 138.621C109.943 138.488 109.532 138.14 109.207 137.578Z" fill="#4B5D63"/>
<path d="M48.4948 134.083L47.1748 136.37C47.0992 136.501 46.9922 136.526 46.8536 136.446L46.3455 136.153C46.207 136.073 46.1755 135.967 46.251 135.836L47.571 133.55C47.6466 133.419 47.7536 133.394 47.8922 133.474L48.4003 133.767C48.5388 133.847 48.5703 133.952 48.4948 134.083ZM52.2051 132.83L52.6584 132.045C52.9784 131.491 52.8536 131.049 52.2839 130.72L51.3602 130.187C50.7905 129.858 50.3457 129.971 50.0257 130.525L49.0923 132.142L50.8706 133.168C51.4402 133.497 51.8851 133.385 52.2051 132.83ZM53.7332 132.45L53.0932 133.559C52.7643 134.128 52.351 134.48 51.8531 134.613C51.3553 134.747 50.8254 134.651 50.2634 134.327L46.4183 132.107C45.8486 131.778 45.501 131.367 45.3753 130.873C45.2419 130.375 45.3396 129.842 45.6685 129.272L46.9952 126.974C47.0707 126.843 47.1739 126.816 47.3048 126.891L47.9052 127.238C48.0284 127.309 48.0522 127.41 47.9767 127.541L46.7433 129.677C46.4233 130.231 46.5482 130.673 47.1178 131.002L48.1108 131.575L49.1375 129.797C49.4664 129.227 49.8798 128.876 50.3776 128.742C50.8677 128.604 51.3976 128.7 51.9673 129.029L52.9834 129.615C53.5454 129.94 53.8931 130.351 54.0265 130.849C54.1599 131.347 54.0621 131.88 53.7332 132.45ZM55.0027 127.985L55.476 127.165C55.796 126.611 55.6712 126.169 55.1016 125.84L51.3488 123.673C50.7791 123.344 50.3343 123.457 50.0143 124.011L49.541 124.831C49.221 125.386 49.3458 125.827 49.9155 126.156L53.6682 128.323C54.2379 128.652 54.6827 128.539 55.0027 127.985ZM56.5509 127.57L55.8842 128.724C55.5553 129.294 55.142 129.646 54.6441 129.779C54.1463 129.912 53.6164 129.817 53.0544 129.492L49.2093 127.272C48.6396 126.944 48.2919 126.532 48.1662 126.039C48.0328 125.541 48.1306 125.007 48.4595 124.438L49.1262 123.283C49.4506 122.721 49.8617 122.373 50.3596 122.24C50.8497 122.102 51.3796 122.198 51.9493 122.527L55.7944 124.747C56.3564 125.071 56.7041 125.482 56.8374 125.98C56.9708 126.478 56.8753 127.008 56.5509 127.57Z" fill="#4B5D63"/>
<path d="M109.417 31.5058L109.87 30.7206C110.19 30.1663 110.066 29.7247 109.496 29.3959L108.572 28.8625C108.002 28.5336 107.558 28.6463 107.238 29.2006L106.304 30.8172L108.083 31.8438C108.652 32.1727 109.097 32.06 109.417 31.5058ZM110.945 31.1256L110.305 32.2341C109.976 32.8037 109.563 33.1553 109.065 33.2887C108.567 33.4221 108.037 33.3265 107.475 33.0021L103.63 30.7821C103.061 30.4532 102.713 30.0421 102.587 29.5487C102.454 29.0508 102.552 28.5171 102.88 27.9474L104.207 25.6496C104.283 25.5187 104.386 25.491 104.517 25.5666L105.117 25.9133C105.24 25.9844 105.264 26.0854 105.189 26.2162L103.955 28.3524C103.635 28.9067 103.76 29.3483 104.33 29.6772L105.323 30.2505L106.349 28.4722C106.678 27.9026 107.092 27.5511 107.59 27.4177C108.08 27.2798 108.61 27.3754 109.179 27.7042L110.195 28.2909C110.757 28.6154 111.105 29.0265 111.238 29.5243C111.372 30.0222 111.274 30.5559 110.945 31.1256ZM112.548 26.0827L113.021 25.2629C113.341 24.7086 113.217 24.2671 112.647 23.9382L108.894 21.7715C108.324 21.4426 107.88 21.5553 107.56 22.1096L107.086 22.9294C106.766 23.4837 106.891 23.9252 107.461 24.2541L111.214 26.4208C111.783 26.7497 112.228 26.637 112.548 26.0827ZM114.096 25.6679L113.43 26.8226C113.101 27.3923 112.687 27.7438 112.189 27.8772C111.692 28.0106 111.162 27.915 110.6 27.5906L106.755 25.3706C106.185 25.0417 105.837 24.6306 105.712 24.1372C105.578 23.6393 105.676 23.1056 106.005 22.5359L106.671 21.3812C106.996 20.8193 107.407 20.4716 107.905 20.3382C108.395 20.2004 108.925 20.2959 109.495 20.6248L113.34 22.8448C113.902 23.1692 114.249 23.5804 114.383 24.0782C114.516 24.5761 114.421 25.106 114.096 25.6679Z" fill="#4B5D63"/>
<path d="M74.5111 139.724H71.8711C71.72 139.724 71.6444 139.644 71.6444 139.484V138.898C71.6444 138.738 71.72 138.658 71.8711 138.658H74.5111C74.6622 138.658 74.7378 138.738 74.7378 138.898V139.484C74.7378 139.644 74.6622 139.724 74.5111 139.724ZM77.3847 139.098H79.2514V136.991C79.2514 136.333 78.927 136.004 78.2781 136.004H77.3847C76.7447 136.004 76.4247 136.333 76.4247 136.991V138.124C76.4247 138.773 76.7447 139.098 77.3847 139.098ZM78.4647 143.444H75.7581C75.5892 143.444 75.5047 143.369 75.5047 143.218V142.524C75.5047 142.382 75.5892 142.311 75.7581 142.311H78.2781C78.9181 142.311 79.2381 141.982 79.2381 141.324V140.244H77.1847C76.527 140.244 76.0158 140.067 75.6514 139.711C75.287 139.347 75.1047 138.84 75.1047 138.191V136.938C75.1047 136.28 75.287 135.773 75.6514 135.418C76.0158 135.053 76.527 134.871 77.1847 134.871H78.4647C79.1225 134.871 79.6336 135.053 79.9981 135.418C80.3625 135.773 80.5447 136.28 80.5447 136.938V141.378C80.5447 142.027 80.3625 142.533 79.9981 142.898C79.6336 143.262 79.1225 143.444 78.4647 143.444ZM83.58 142.311H84.5267C85.1667 142.311 85.4867 141.982 85.4867 141.324V136.991C85.4867 136.333 85.1667 136.004 84.5267 136.004H83.58C82.94 136.004 82.62 136.333 82.62 136.991V141.324C82.62 141.982 82.94 142.311 83.58 142.311ZM84.7134 143.444H83.38C82.7223 143.444 82.2112 143.262 81.8467 142.898C81.4823 142.533 81.3 142.027 81.3 141.378V136.938C81.3 136.28 81.4823 135.773 81.8467 135.418C82.2112 135.053 82.7223 134.871 83.38 134.871H84.7134C85.3623 134.871 85.8689 135.053 86.2334 135.418C86.5978 135.773 86.78 136.28 86.78 136.938V141.378C86.78 142.027 86.5978 142.533 86.2334 142.898C85.8689 143.262 85.3623 143.444 84.7134 143.444Z" fill="#4B5D63"/>
<path d="M76.2534 19.0978H78.12V16.9911C78.12 16.3333 77.7956 16.0044 77.1467 16.0044H76.2534C75.6134 16.0044 75.2934 16.3333 75.2934 16.9911V18.1244C75.2934 18.7733 75.6134 19.0978 76.2534 19.0978ZM77.3334 23.4444H74.6267C74.4578 23.4444 74.3734 23.3689 74.3734 23.2178V22.5244C74.3734 22.3822 74.4578 22.3111 74.6267 22.3111H77.1467C77.7867 22.3111 78.1067 21.9822 78.1067 21.3244V20.2444H76.0534C75.3956 20.2444 74.8845 20.0667 74.52 19.7111C74.1556 19.3467 73.9734 18.84 73.9734 18.1911V16.9378C73.9734 16.28 74.1556 15.7733 74.52 15.4178C74.8845 15.0533 75.3956 14.8711 76.0534 14.8711H77.3334C77.9912 14.8711 78.5023 15.0533 78.8667 15.4178C79.2312 15.7733 79.4134 16.28 79.4134 16.9378V21.3778C79.4134 22.0267 79.2312 22.5333 78.8667 22.8978C78.5023 23.2622 77.9912 23.4444 77.3334 23.4444ZM82.582 22.3111H83.5287C84.1687 22.3111 84.4887 21.9822 84.4887 21.3244V16.9911C84.4887 16.3333 84.1687 16.0044 83.5287 16.0044H82.582C81.942 16.0044 81.622 16.3333 81.622 16.9911V21.3244C81.622 21.9822 81.942 22.3111 82.582 22.3111ZM83.7154 23.4444H82.382C81.7242 23.4444 81.2131 23.2622 80.8487 22.8978C80.4842 22.5333 80.302 22.0267 80.302 21.3778V16.9378C80.302 16.28 80.4842 15.7733 80.8487 15.4178C81.2131 15.0533 81.7242 14.8711 82.382 14.8711H83.7154C84.3642 14.8711 84.8709 15.0533 85.2354 15.4178C85.5998 15.7733 85.782 16.28 85.782 16.9378V21.3778C85.782 22.0267 85.5998 22.5333 85.2354 22.8978C84.8709 23.2622 84.3642 23.4444 83.7154 23.4444Z" fill="#4B5D63"/>
</g>
<defs>
<clipPath id="clip0_66_2">
<rect width="160" height="160" fill="white"/>
</clipPath>
</defs>
</svg>
