<svg width="144" height="144" viewBox="0 0 144 144" fill="none" xmlns="http://www.w3.org/2000/svg">
<g clip-path="url(#clip0_66_2)">
<circle cx="72" cy="72" r="71" stroke="#4B5D63" stroke-width="2"/>
<rect x="71" y="2" width="2" height="8" fill="#4B5D63"/>
<rect x="71" y="134" width="2" height="8" fill="#4B5D63"/>
<rect x="2" y="73" width="2" height="8" transform="rotate(-90 2 73)" fill="#4B5D63"/>
<rect x="134" y="73" width="2" height="8" transform="rotate(-90 134 73)" fill="#4B5D63"/>
<rect x="36.134" y="11.8782" width="2" height="6" transform="rotate(-30 36.134 11.8782)" fill="#4B5D63"/>
<rect x="107.866" y="132.122" width="2" height="6" transform="rotate(150 107.866 132.122)" fill="#4B5D63"/>
<rect x="10.8783" y="37.866" width="2" height="6" transform="rotate(-60 10.8783 37.866)" fill="#4B5D63"/>
<rect x="133.122" y="106.134" width="2" height="6" transform="rotate(120 133.122 106.134)" fill="#4B5D63"/>
<rect x="106.134" y="10.8782" width="2" height="6" transform="rotate(30 106.134 10.8782)" fill="#4B5D63"/>
<rect x="37.8661" y="133.122" width="2" height="6" transform="rotate(-150 37.8661 133.122)" fill="#4B5D63"/>
<rect x="132.122" y="36.134" width="2" height="6" transform="rotate(60 132.122 36.134)" fill="#4B5D63"/>
<rect x="11.8783" y="107.866" width="2" height="6" transform="rotate(-120 11.8783 107.866)" fill="#4B5D63"/>
<path d="M16.748 74.98H17.6C18.176 74.98 18.464 74.684 18.464 74.092V70.192C18.464 69.6 18.176 69.304 17.6 69.304H16.748C16.172 69.304 15.884 69.6 15.884 70.192V74.092C15.884 74.684 16.172 74.98 16.748 74.98ZM17.768 76H16.568C15.976 76 15.516 75.836 15.188 75.508C14.86 75.18 14.696 74.724 14.696 74.14V70.144C14.696 69.552 14.86 69.096 15.188 68.776C15.516 68.448 15.976 68.284 16.568 68.284H17.768C18.352 68.284 18.808 68.448 19.136 68.776C19.464 69.096 19.628 69.552 19.628 70.144V74.14C19.628 74.724 19.464 75.18 19.136 75.508C18.808 75.836 18.352 76 17.768 76Z" fill="#4B5D63"/>
<path d="M125.748 74.98H126.6C127.176 74.98 127.464 74.684 127.464 74.092V70.192C127.464 69.6 127.176 69.304 126.6 69.304H125.748C125.172 69.304 124.884 69.6 124.884 70.192V74.092C124.884 74.684 125.172 74.98 125.748 74.98ZM126.768 76H125.568C124.976 76 124.516 75.836 124.188 75.508C123.86 75.18 123.696 74.724 123.696 74.14V70.144C123.696 69.552 123.86 69.096 124.188 68.776C124.516 68.448 124.976 68.284 125.568 68.284H126.768C127.352 68.284 127.808 68.448 128.136 68.776C128.464 69.096 128.628 69.552 128.628 70.144V74.14C128.628 74.724 128.464 75.18 128.136 75.508C127.808 75.836 127.352 76 126.768 76Z" fill="#4B5D63"/>
<path d="M21.9747 42.3478L22.5463 42.6778C23.059 42.9738 23.4613 42.8689 23.7533 42.3632L24.0653 41.8228C24.3533 41.324 24.241 40.9265 23.7283 40.6305L23.1151 40.2765C22.8588 40.1285 22.6343 40.0774 22.4416 40.1232C22.2558 40.173 22.0869 40.3295 21.9349 40.5928L21.7609 40.8942C21.6929 41.0119 21.6 41.0368 21.4822 40.9688L20.8171 40.5848C20.6993 40.5168 20.6744 40.4239 20.7424 40.3062L20.9284 39.984C21.2204 39.4782 21.5885 39.1688 22.0325 39.0557C22.4766 38.9425 22.955 39.034 23.4676 39.33L24.3718 39.852C24.8845 40.148 25.2028 40.5165 25.3269 40.9577C25.4509 41.3988 25.367 41.8722 25.075 42.378L24.745 42.9496C24.393 43.5593 23.8918 43.7872 23.2416 43.6335C23.7198 44.0851 23.773 44.6331 23.401 45.2775L23.053 45.8802C22.761 46.386 22.3929 46.6954 21.9489 46.8085C21.5048 46.9217 21.0265 46.8302 20.5138 46.5342L19.6096 46.0122C19.097 45.7162 18.7786 45.3477 18.6545 44.9065C18.5305 44.4654 18.6144 43.992 18.9064 43.4862L19.1164 43.1225C19.1884 42.9978 19.2833 42.9694 19.4011 43.0374L20.0662 43.4214C20.184 43.4894 20.2069 43.5858 20.1349 43.7105L19.9369 44.0534C19.7889 44.3098 19.7378 44.5343 19.7836 44.727C19.8403 44.9168 19.9968 45.0857 20.2531 45.2337L20.8663 45.5877C21.379 45.8837 21.7793 45.7823 22.0673 45.2834L22.3973 44.7118C22.6893 44.2061 22.579 43.8052 22.0663 43.5092L21.4947 43.1792C21.3769 43.1112 21.352 43.0183 21.42 42.9005L21.69 42.4329C21.762 42.3082 21.8569 42.2798 21.9747 42.3478ZM24.5874 47.7083L25.3252 48.1343C25.824 48.4223 26.2215 48.31 26.5175 47.7973L28.4675 44.4198C28.7635 43.9071 28.662 43.5068 28.1632 43.2188L27.4254 42.7928C26.9265 42.5048 26.5291 42.6171 26.2331 43.1298L24.2831 46.5073C23.9871 47.02 24.0885 47.4203 24.5874 47.7083ZM24.9607 49.1017L23.9215 48.5017C23.4088 48.2057 23.0924 47.8336 22.9724 47.3856C22.8523 46.9375 22.9383 46.4606 23.2303 45.9549L25.2283 42.4942C25.5243 41.9815 25.8943 41.6686 26.3384 41.5555C26.7864 41.4354 27.2668 41.5234 27.7795 41.8194L28.8187 42.4194C29.3245 42.7114 29.6374 43.0814 29.7574 43.5295C29.8815 43.9706 29.7955 44.4475 29.4995 44.9602L27.5015 48.4209C27.2095 48.9266 26.8395 49.2395 26.3914 49.3596C25.9434 49.4796 25.4665 49.3937 24.9607 49.1017Z" fill="#4B5D63"/>
<path d="M116.975 96.3478L117.546 96.6778C118.059 96.9738 118.461 96.8689 118.753 96.3632L119.065 95.8228C119.353 95.324 119.241 94.9265 118.728 94.6305L118.115 94.2765C117.859 94.1285 117.634 94.0774 117.442 94.1232C117.256 94.173 117.087 94.3295 116.935 94.5928L116.761 94.8942C116.693 95.0119 116.6 95.0368 116.482 94.9688L115.817 94.5848C115.699 94.5168 115.674 94.4239 115.742 94.3062L115.928 93.984C116.22 93.4782 116.588 93.1688 117.033 93.0557C117.477 92.9425 117.955 93.034 118.468 93.33L119.372 93.852C119.884 94.148 120.203 94.5165 120.327 94.9577C120.451 95.3988 120.367 95.8722 120.075 96.378L119.745 96.9496C119.393 97.5593 118.892 97.7872 118.242 97.6335C118.72 98.0852 118.773 98.6331 118.401 99.2775L118.053 99.8802C117.761 100.386 117.393 100.695 116.949 100.809C116.505 100.922 116.026 100.83 115.514 100.534L114.61 100.012C114.097 99.7162 113.779 99.3477 113.655 98.9065C113.53 98.4654 113.614 97.992 113.906 97.4862L114.116 97.1225C114.188 96.9978 114.283 96.9694 114.401 97.0374L115.066 97.4214C115.184 97.4894 115.207 97.5858 115.135 97.7105L114.937 98.0534C114.789 98.3098 114.738 98.5343 114.784 98.727C114.84 98.9168 114.997 99.0857 115.253 99.2337L115.866 99.5877C116.379 99.8837 116.779 99.7823 117.067 99.2834L117.397 98.7118C117.689 98.2061 117.579 97.8052 117.066 97.5092L116.495 97.1792C116.377 97.1112 116.352 97.0183 116.42 96.9005L116.69 96.4329C116.762 96.3082 116.857 96.2798 116.975 96.3478ZM119.587 101.708L120.325 102.134C120.824 102.422 121.221 102.31 121.517 101.797L123.467 98.4198C123.763 97.9071 123.662 97.5068 123.163 97.2188L122.425 96.7928C121.927 96.5048 121.529 96.6171 121.233 97.1298L119.283 100.507C118.987 101.02 119.089 101.42 119.587 101.708ZM119.961 103.102L118.921 102.502C118.409 102.206 118.092 101.834 117.972 101.386C117.852 100.938 117.938 100.461 118.23 99.9549L120.228 96.4942C120.524 95.9815 120.894 95.6686 121.338 95.5555C121.786 95.4354 122.267 95.5234 122.779 95.8194L123.819 96.4194C124.324 96.7114 124.637 97.0814 124.757 97.5295C124.881 97.9706 124.796 98.4475 124.5 98.9602L122.502 102.421C122.21 102.927 121.839 103.24 121.391 103.36C120.943 103.48 120.466 103.394 119.961 103.102Z" fill="#4B5D63"/>
<path d="M23.476 100.497L21.4184 101.685C21.3006 101.753 21.2057 101.725 21.1337 101.6L20.8697 101.143C20.7977 101.018 20.8206 100.922 20.9384 100.854L22.996 99.6659C23.1138 99.5979 23.2087 99.6263 23.2807 99.751L23.5447 100.208C23.6167 100.333 23.5938 100.429 23.476 100.497ZM24.8169 98.5592L25.3885 98.2292C25.9012 97.9332 26.0115 97.5323 25.7195 97.0266L25.4075 96.4862C25.1195 95.9874 24.7192 95.8859 24.2065 96.1819L23.5933 96.5359C23.337 96.6839 23.1805 96.8528 23.1238 97.0426C23.074 97.2284 23.1251 97.4529 23.2771 97.7162L23.4511 98.0176C23.5191 98.1353 23.4942 98.2282 23.3764 98.2962L22.7113 98.6802C22.5935 98.7482 22.5007 98.7233 22.4327 98.6056L22.2467 98.2834C21.9547 97.7776 21.8707 97.3042 21.9947 96.8631C22.1188 96.4219 22.4372 96.0534 22.9499 95.7574L23.854 95.2354C24.3667 94.9394 24.845 94.8479 25.2891 94.9611C25.7332 95.0742 26.1012 95.3836 26.3932 95.8894L26.7232 96.461C27.0752 97.0707 27.0221 97.6186 26.5638 98.1049C27.1941 97.9166 27.6952 98.1445 28.0672 98.7889L28.4152 99.3916C28.7072 99.8974 28.7912 100.371 28.6671 100.812C28.543 101.253 28.2247 101.622 27.712 101.918L26.8079 102.44C26.2952 102.736 25.8168 102.827 25.3727 102.714C24.9287 102.601 24.5607 102.291 24.2687 101.786L24.0587 101.422C23.9867 101.297 24.0095 101.201 24.1273 101.133L24.7924 100.749C24.9102 100.681 25.0051 100.709 25.0771 100.834L25.2751 101.177C25.4231 101.433 25.592 101.59 25.7818 101.646C25.9745 101.692 26.199 101.641 26.4553 101.493L27.0685 101.139C27.5812 100.843 27.6935 100.446 27.4055 99.9468L27.0755 99.3753C26.7835 98.8695 26.3812 98.7646 25.8685 99.0606L25.2969 99.3906C25.1791 99.4586 25.0862 99.4337 25.0182 99.3159L24.7482 98.8483C24.6762 98.7236 24.6991 98.6272 24.8169 98.5592ZM30.7656 98.9769L31.5034 98.5509C32.0023 98.2629 32.1037 97.8625 31.8077 97.3498L29.8577 93.9723C29.5617 93.4596 29.1643 93.3473 28.6654 93.6353L27.9276 94.0613C27.4287 94.3493 27.3273 94.7496 27.6233 95.2623L29.5733 98.6398C29.8693 99.1525 30.2667 99.2649 30.7656 98.9769ZM32.1589 99.3502L31.1197 99.9502C30.607 100.246 30.1266 100.334 29.6786 100.214C29.2305 100.094 28.8605 99.7811 28.5685 99.2754L26.5705 95.8148C26.2745 95.3021 26.1885 94.8252 26.3126 94.384C26.4326 93.936 26.749 93.5639 27.2617 93.2679L28.3009 92.6679C28.8067 92.3759 29.2836 92.29 29.7316 92.41C30.1757 92.5232 30.5457 92.8361 30.8417 93.3488L32.8397 96.8094C33.1317 97.3151 33.2177 97.7921 33.0976 98.2401C32.9776 98.6882 32.6647 99.0582 32.1589 99.3502Z" fill="#4B5D63"/>
<path d="M115.476 47.3648L113.418 48.5528C113.301 48.6208 113.206 48.5924 113.134 48.4677L112.87 48.0105C112.798 47.8857 112.821 47.7894 112.938 47.7214L114.996 46.5334C115.114 46.4654 115.209 46.4937 115.281 46.6185L115.545 47.0757C115.617 47.2004 115.594 47.2968 115.476 47.3648ZM116.817 45.4267L117.388 45.0967C117.901 44.8007 118.012 44.3998 117.72 43.894L117.408 43.3536C117.12 42.8548 116.719 42.7534 116.206 43.0494L115.593 43.4034C115.337 43.5514 115.18 43.7203 115.124 43.9101C115.074 44.0958 115.125 44.3204 115.277 44.5836L115.451 44.885C115.519 45.0028 115.494 45.0957 115.376 45.1637L114.711 45.5477C114.594 45.6157 114.501 45.5908 114.433 45.473L114.247 45.1509C113.955 44.6451 113.871 44.1717 113.995 43.7305C114.119 43.2894 114.437 42.9208 114.95 42.6248L115.854 42.1028C116.367 41.8068 116.845 41.7154 117.289 41.8285C117.733 41.9417 118.101 42.2511 118.393 42.7569L118.723 43.3284C119.075 43.9381 119.022 44.4861 118.564 44.9724C119.194 44.784 119.695 45.012 120.067 45.6563L120.415 46.2591C120.707 46.7648 120.791 47.2383 120.667 47.6794C120.543 48.1205 120.225 48.4891 119.712 48.7851L118.808 49.3071C118.295 49.6031 117.817 49.6945 117.373 49.5814C116.929 49.4683 116.561 49.1588 116.269 48.6531L116.059 48.2893C115.987 48.1646 116.01 48.0683 116.127 48.0003L116.792 47.6163C116.91 47.5483 117.005 47.5766 117.077 47.7013L117.275 48.0443C117.423 48.3006 117.592 48.4572 117.782 48.5139C117.974 48.5596 118.199 48.5085 118.455 48.3605L119.068 48.0065C119.581 47.7105 119.694 47.3131 119.406 46.8143L119.076 46.2427C118.784 45.7369 118.381 45.6321 117.868 45.9281L117.297 46.2581C117.179 46.3261 117.086 46.3012 117.018 46.1834L116.748 45.7157C116.676 45.591 116.699 45.4947 116.817 45.4267ZM122.766 45.8443L123.503 45.4183C124.002 45.1303 124.104 44.73 123.808 44.2173L121.858 40.8398C121.562 40.3271 121.164 40.2147 120.665 40.5027L119.928 40.9287C119.429 41.2167 119.327 41.6171 119.623 42.1298L121.573 45.5073C121.869 46.02 122.267 46.1323 122.766 45.8443ZM124.159 46.2177L123.12 46.8177C122.607 47.1137 122.127 47.2016 121.679 47.0816C121.231 46.9615 120.86 46.6486 120.568 46.1428L118.57 42.6822C118.274 42.1695 118.189 41.6926 118.313 41.2515C118.433 40.8034 118.749 40.4314 119.262 40.1354L120.301 39.5354C120.807 39.2434 121.284 39.1574 121.732 39.2775C122.176 39.3906 122.546 39.7035 122.842 40.2162L124.84 43.6768C125.132 44.1826 125.218 44.6595 125.098 45.1076C124.978 45.5556 124.665 45.9257 124.159 46.2177Z" fill="#4B5D63"/>
<path d="M41.0934 23.3179L41.5014 24.0246C41.7894 24.5234 42.1897 24.6248 42.7024 24.3288L43.5338 23.8488C44.0465 23.5528 44.1588 23.1554 43.8708 22.6566L43.0308 21.2016L41.4304 22.1256C40.9177 22.4216 40.8054 22.819 41.0934 23.3179ZM40.702 24.68L40.126 23.6824C39.83 23.1697 39.7421 22.6893 39.8621 22.2413C39.9822 21.7932 40.2951 21.4232 40.8009 21.1312L44.2615 19.1332C44.7742 18.8372 45.2511 18.7512 45.6922 18.8753C46.1403 18.9953 46.5123 19.3117 46.8083 19.8244L48.0023 21.8925C48.0703 22.0102 48.0454 22.1031 47.9276 22.1711L47.3872 22.4831C47.2764 22.5471 47.187 22.5202 47.119 22.4025L46.009 20.4799C45.721 19.981 45.3206 19.8796 44.8079 20.1756L43.9142 20.6916L44.8382 22.292C45.1342 22.8047 45.2222 23.2851 45.1021 23.7332C44.989 24.1772 44.6761 24.5472 44.1634 24.8432L43.2489 25.3712C42.7431 25.6632 42.2662 25.7492 41.8181 25.6292C41.3701 25.5091 40.998 25.1927 40.702 24.68ZM43.6113 27.679L44.0373 28.4168C44.3253 28.9157 44.7256 29.0171 45.2383 28.7211L48.6158 26.7711C49.1285 26.4751 49.2408 26.0777 48.9528 25.5788L48.5268 24.841C48.2388 24.3422 47.8385 24.2407 47.3258 24.5367L43.9483 26.4867C43.4356 26.7827 43.3233 27.1802 43.6113 27.679ZM43.2379 29.0723L42.6379 28.0331C42.3419 27.5204 42.254 27.04 42.374 26.592C42.4941 26.1439 42.807 25.7739 43.3127 25.4819L46.7734 23.4839C47.2861 23.1879 47.763 23.1019 48.2041 23.226C48.6522 23.346 49.0242 23.6624 49.3202 24.1751L49.9202 25.2143C50.2122 25.7201 50.2982 26.197 50.1781 26.6451C50.065 27.0891 49.7521 27.4591 49.2394 27.7551L45.7787 29.7531C45.273 30.0451 44.7961 30.1311 44.348 30.0111C43.9 29.891 43.5299 29.5781 43.2379 29.0723Z" fill="#4B5D63"/>
<path d="M95.0934 118.318L95.5014 119.025C95.7894 119.523 96.1897 119.625 96.7024 119.329L97.5338 118.849C98.0465 118.553 98.1588 118.155 97.8708 117.657L97.0308 116.202L95.4304 117.126C94.9177 117.422 94.8054 117.819 95.0934 118.318ZM94.702 119.68L94.126 118.682C93.83 118.17 93.7421 117.689 93.8621 117.241C93.9822 116.793 94.2951 116.423 94.8009 116.131L98.2615 114.133C98.7742 113.837 99.2511 113.751 99.6922 113.875C100.14 113.995 100.512 114.312 100.808 114.824L102.002 116.892C102.07 117.01 102.045 117.103 101.928 117.171L101.387 117.483C101.276 117.547 101.187 117.52 101.119 117.402L100.009 115.48C99.721 114.981 99.3206 114.88 98.8079 115.176L97.9142 115.692L98.8382 117.292C99.1342 117.805 99.2222 118.285 99.1021 118.733C98.989 119.177 98.6761 119.547 98.1634 119.843L97.2489 120.371C96.7431 120.663 96.2662 120.749 95.8181 120.629C95.3701 120.509 94.998 120.193 94.702 119.68ZM97.6113 122.679L98.0373 123.417C98.3253 123.916 98.7256 124.017 99.2383 123.721L102.616 121.771C103.129 121.475 103.241 121.078 102.953 120.579L102.527 119.841C102.239 119.342 101.839 119.241 101.326 119.537L97.9483 121.487C97.4356 121.783 97.3233 122.18 97.6113 122.679ZM97.2379 124.072L96.6379 123.033C96.3419 122.52 96.254 122.04 96.374 121.592C96.4941 121.144 96.807 120.774 97.3127 120.482L100.773 118.484C101.286 118.188 101.763 118.102 102.204 118.226C102.652 118.346 103.024 118.662 103.32 119.175L103.92 120.214C104.212 120.72 104.298 121.197 104.178 121.645C104.065 122.089 103.752 122.459 103.239 122.755L99.7787 124.753C99.273 125.045 98.7961 125.131 98.348 125.011C97.9 124.891 97.5299 124.578 97.2379 124.072Z" fill="#4B5D63"/>
<path d="M44.4248 121.125L43.2368 123.183C43.1688 123.3 43.0724 123.323 42.9477 123.251L42.4905 122.987C42.3657 122.915 42.3374 122.82 42.4054 122.703L43.5934 120.645C43.6614 120.527 43.7577 120.504 43.8825 120.576L44.3397 120.84C44.4644 120.912 44.4928 121.007 44.4248 121.125ZM47.764 119.997L48.172 119.291C48.46 118.792 48.3477 118.394 47.835 118.098L47.0036 117.618C46.4909 117.322 46.0906 117.424 45.8026 117.923L44.9626 119.377L46.563 120.301C47.0757 120.597 47.476 120.496 47.764 119.997ZM49.1394 119.655L48.5634 120.653C48.2674 121.165 47.8953 121.482 47.4473 121.602C46.9992 121.722 46.5223 121.636 46.0166 121.344L42.5559 119.346C42.0432 119.05 41.7303 118.68 41.6172 118.236C41.4971 117.788 41.5851 117.307 41.8811 116.795L43.0751 114.727C43.1431 114.609 43.236 114.584 43.3538 114.652L43.8942 114.964C44.005 115.028 44.0265 115.119 43.9585 115.237L42.8485 117.159C42.5605 117.658 42.6728 118.055 43.1855 118.351L44.0792 118.867L45.0032 117.267C45.2992 116.754 45.6713 116.438 46.1193 116.318C46.5604 116.194 47.0374 116.28 47.55 116.576L48.4646 117.104C48.9703 117.396 49.2832 117.766 49.4033 118.214C49.5233 118.662 49.4354 119.142 49.1394 119.655ZM50.2819 115.636L50.7079 114.898C50.9959 114.399 50.8836 114.002 50.3709 113.706L46.9934 111.756C46.4807 111.46 46.0804 111.561 45.7924 112.06L45.3664 112.798C45.0784 113.297 45.1907 113.694 45.7034 113.99L49.0809 115.94C49.5936 116.236 49.9939 116.135 50.2819 115.636ZM51.6753 115.263L51.0753 116.302C50.7793 116.815 50.4072 117.131 49.9592 117.251C49.5111 117.371 49.0342 117.285 48.5285 116.993L45.0678 114.995C44.5551 114.699 44.2422 114.329 44.1291 113.885C44.009 113.437 44.097 112.957 44.393 112.444L44.993 111.405C45.285 110.899 45.655 110.586 46.1031 110.466C46.5442 110.342 47.0211 110.428 47.5338 110.724L50.9945 112.722C51.5002 113.014 51.8131 113.384 51.9332 113.832C52.0532 114.28 51.9673 114.757 51.6753 115.263Z" fill="#4B5D63"/>
<path d="M96.4248 30.319L95.2368 32.3767C95.1688 32.4945 95.0724 32.5174 94.9477 32.4454L94.4905 32.1814C94.3657 32.1094 94.3374 32.0145 94.4054 31.8967L95.5934 29.839C95.6614 29.7212 95.7577 29.6984 95.8825 29.7704L96.3397 30.0344C96.4644 30.1064 96.4928 30.2012 96.4248 30.319ZM99.824 29.0874L100.232 28.3807C100.52 27.8818 100.408 27.4844 99.895 27.1884L99.0636 26.7084C98.5509 26.4124 98.1506 26.5138 97.8626 27.0127L97.0226 28.4676L98.623 29.3916C99.1357 29.6876 99.536 29.5862 99.824 29.0874ZM101.199 28.7452L100.623 29.7428C100.327 30.2555 99.9553 30.5719 99.5073 30.692C99.0592 30.812 98.5823 30.726 98.0766 30.434L94.6159 28.436C94.1032 28.14 93.7903 27.77 93.6772 27.326C93.5571 26.8779 93.6451 26.3975 93.9411 25.8848L95.1351 23.8168C95.2031 23.699 95.296 23.6741 95.4138 23.7421L95.9542 24.0541C96.065 24.1181 96.0865 24.209 96.0185 24.3268L94.9085 26.2494C94.6205 26.7482 94.7328 27.1456 95.2455 27.4416L96.1392 27.9576L97.0632 26.3572C97.3592 25.8445 97.7313 25.5281 98.1793 25.4081C98.6204 25.284 99.0974 25.37 99.61 25.666L100.525 26.194C101.03 26.486 101.343 26.856 101.463 27.3041C101.583 27.7521 101.495 28.2325 101.199 28.7452ZM102.642 24.2066L103.068 23.4688C103.356 22.9699 103.244 22.5725 102.731 22.2765L99.3534 20.3265C98.8407 20.0305 98.4404 20.1319 98.1524 20.6308L97.7264 21.3686C97.4384 21.8675 97.5507 22.2649 98.0634 22.5609L101.441 24.5109C101.954 24.8069 102.354 24.7055 102.642 24.2066ZM104.035 23.8333L103.435 24.8725C103.139 25.3852 102.767 25.7016 102.319 25.8216C101.871 25.9417 101.394 25.8557 100.888 25.5637L97.4278 23.5657C96.9151 23.2697 96.6022 22.8997 96.4891 22.4556C96.369 22.0076 96.457 21.5272 96.753 21.0145L97.353 19.9753C97.645 19.4695 98.015 19.1566 98.4631 19.0366C98.9042 18.9125 99.3811 18.9985 99.8938 19.2945L103.354 21.2925C103.86 21.5845 104.173 21.9545 104.293 22.4026C104.413 22.8506 104.327 23.3275 104.035 23.8333Z" fill="#4B5D63"/>
<path d="M67.06 126.652H64.684C64.548 126.652 64.48 126.58 64.48 126.436V125.908C64.48 125.764 64.548 125.692 64.684 125.692H67.06C67.196 125.692 67.264 125.764 67.264 125.908V126.436C67.264 126.58 67.196 126.652 67.06 126.652ZM69.6463 126.088H71.3263V124.192C71.3263 123.6 71.0343 123.304 70.4503 123.304H69.6463C69.0703 123.304 68.7823 123.6 68.7823 124.192V125.212C68.7823 125.796 69.0703 126.088 69.6463 126.088ZM70.6183 130H68.1823C68.0303 130 67.9543 129.932 67.9543 129.796V129.172C67.9543 129.044 68.0303 128.98 68.1823 128.98H70.4503C71.0263 128.98 71.3143 128.684 71.3143 128.092V127.12H69.4663C68.8743 127.12 68.4143 126.96 68.0863 126.64C67.7583 126.312 67.5943 125.856 67.5943 125.272V124.144C67.5943 123.552 67.7583 123.096 68.0863 122.776C68.4143 122.448 68.8743 122.284 69.4663 122.284H70.6183C71.2103 122.284 71.6703 122.448 71.9983 122.776C72.3263 123.096 72.4903 123.552 72.4903 124.144V128.14C72.4903 128.724 72.3263 129.18 71.9983 129.508C71.6703 129.836 71.2103 130 70.6183 130ZM75.2221 128.98H76.0741C76.6501 128.98 76.9381 128.684 76.9381 128.092V124.192C76.9381 123.6 76.6501 123.304 76.0741 123.304H75.2221C74.6461 123.304 74.3581 123.6 74.3581 124.192V128.092C74.3581 128.684 74.6461 128.98 75.2221 128.98ZM76.2421 130H75.0421C74.4501 130 73.9901 129.836 73.6621 129.508C73.3341 129.18 73.1701 128.724 73.1701 128.14V124.144C73.1701 123.552 73.3341 123.096 73.6621 122.776C73.9901 122.448 74.4501 122.284 75.0421 122.284H76.2421C76.8261 122.284 77.2821 122.448 77.6101 122.776C77.9381 123.096 78.1021 123.552 78.1021 124.144V128.14C78.1021 128.724 77.9381 129.18 77.6101 129.508C77.2821 129.836 76.8261 130 76.2421 130Z" fill="#4B5D63"/>
<path d="M68.628 18.088H70.308V16.192C70.308 15.6 70.016 15.304 69.432 15.304H68.628C68.052 15.304 67.764 15.6 67.764 16.192V17.212C67.764 17.796 68.052 18.088 68.628 18.088ZM69.6 22H67.164C67.012 22 66.936 21.932 66.936 21.796V21.172C66.936 21.044 67.012 20.98 67.164 20.98H69.432C70.008 20.98 70.296 20.684 70.296 20.092V19.12H68.448C67.856 19.12 67.396 18.96 67.068 18.64C66.74 18.312 66.576 17.856 66.576 17.272V16.144C66.576 15.552 66.74 15.096 67.068 14.776C67.396 14.448 67.856 14.284 68.448 14.284H69.6C70.192 14.284 70.652 14.448 70.98 14.776C71.308 15.096 71.472 15.552 71.472 16.144V20.14C71.472 20.724 71.308 21.18 70.98 21.508C70.652 21.836 70.192 22 69.6 22ZM74.3238 20.98H75.1758C75.7518 20.98 76.0398 20.684 76.0398 20.092V16.192C76.0398 15.6 75.7518 15.304 75.1758 15.304H74.3238C73.7478 15.304 73.4598 15.6 73.4598 16.192V20.092C73.4598 20.684 73.7478 20.98 74.3238 20.98ZM75.3438 22H74.1438C73.5518 22 73.0918 21.836 72.7638 21.508C72.4358 21.18 72.2718 20.724 72.2718 20.14V16.144C72.2718 15.552 72.4358 15.096 72.7638 14.776C73.0918 14.448 73.5518 14.284 74.1438 14.284H75.3438C75.9278 14.284 76.3838 14.448 76.7118 14.776C77.0398 15.096 77.2038 15.552 77.2038 16.144V20.14C77.2038 20.724 77.0398 21.18 76.7118 21.508C76.3838 21.836 75.9278 22 75.3438 22Z" fill="#4B5D63"/>
</g>
<defs>
<clipPath id="clip0_66_2">
<rect width="144" height="144" fill="white"/>
</clipPath>
</defs>
</svg>
