<svg width="144" height="144" viewBox="0 0 144 144" fill="none" xmlns="http://www.w3.org/2000/svg">
<g clip-path="url(#clip0_87_69)">
<circle cx="72" cy="72" r="71" stroke="#FF4040" stroke-width="2"/>
<rect x="71" y="2" width="2" height="8" fill="#FF4040"/>
<rect x="71" y="134" width="2" height="8" fill="#FF4040"/>
<rect x="2" y="73" width="2" height="8" transform="rotate(-90 2 73)" fill="#FF4040"/>
<rect x="134" y="73" width="2" height="8" transform="rotate(-90 134 73)" fill="#FF4040"/>
<rect x="21.7955" y="23.2096" width="2" height="6" transform="rotate(-45 21.7955 23.2096)" fill="#FF4040"/>
<rect x="122.205" y="120.79" width="2" height="6" transform="rotate(135 122.205 120.79)" fill="#FF4040"/>
<rect x="120.79" y="21.7954" width="2" height="6" transform="rotate(45 120.79 21.7954)" fill="#FF4040"/>
<rect x="23.2097" y="122.205" width="2" height="6" transform="rotate(-135 23.2097 122.205)" fill="#FF4040"/>
<path d="M20.204 76H18.932C18.788 76 18.704 75.932 18.68 75.796L17.252 68.488C17.236 68.352 17.304 68.284 17.456 68.284H18.38C18.532 68.284 18.612 68.352 18.62 68.488L19.592 74.776H19.664L21.08 68.464C21.096 68.344 21.168 68.284 21.296 68.284H22.304C22.432 68.284 22.508 68.344 22.532 68.464L23.96 74.776H24.032L25.004 68.5C25.012 68.356 25.092 68.284 25.244 68.284H26.168C26.328 68.284 26.396 68.356 26.372 68.5L24.944 75.796C24.92 75.932 24.84 76 24.704 76H23.432C23.296 76 23.216 75.932 23.192 75.796L21.836 69.724H21.788L20.432 75.796C20.408 75.932 20.332 76 20.204 76Z" fill="#FF4040"/>
<path d="M126.92 76H123.08C122.944 76 122.876 75.932 122.876 75.796V68.488C122.876 68.352 122.944 68.284 123.08 68.284H126.92C127.048 68.284 127.112 68.352 127.112 68.488V69.1C127.112 69.236 127.048 69.304 126.92 69.304H124.184C124.088 69.304 124.04 69.344 124.04 69.424V71.452C124.04 71.532 124.088 71.572 124.184 71.572H126.5C126.644 71.572 126.716 71.64 126.716 71.776V72.388C126.716 72.524 126.644 72.592 126.5 72.592H124.184C124.088 72.592 124.04 72.632 124.04 72.712V74.848C124.04 74.936 124.088 74.98 124.184 74.98H126.92C127.048 74.98 127.112 75.048 127.112 75.184V75.796C127.112 75.932 127.048 76 126.92 76Z" fill="#FF4040"/>
<path d="M34.5579 114.366L34.3372 114.145C34.2411 114.049 34.2411 113.953 34.3372 113.857L34.8803 113.313C34.9765 113.217 35.0726 113.217 35.1688 113.313L35.3215 113.466C35.5591 113.704 35.7826 113.825 35.9919 113.831C36.2012 113.825 36.4274 113.701 36.6707 113.458L37.2562 112.872C37.4994 112.629 37.621 112.4 37.621 112.185C37.6154 111.964 37.4881 111.73 37.2392 111.481L37.044 111.285C36.863 111.104 36.6509 111.034 36.4077 111.073C36.1644 111.102 35.9268 111.203 35.6949 111.379C35.4573 111.549 35.1886 111.727 34.8888 111.913C34.589 112.1 34.3005 112.258 34.0233 112.389C33.7461 112.519 33.435 112.553 33.0899 112.49C32.7505 112.423 32.4224 112.23 32.1056 111.913L31.7492 111.557C31.3363 111.144 31.1298 110.706 31.1298 110.242C31.1298 109.767 31.3363 109.323 31.7492 108.91L32.6487 108.01C33.0673 107.592 33.5113 107.385 33.9809 107.391C34.4504 107.385 34.8916 107.589 35.3046 108.002L35.4912 108.188C35.5874 108.285 35.5874 108.381 35.4912 108.477L34.9482 109.02C34.852 109.116 34.7558 109.116 34.6597 109.02L34.5494 108.91C34.3061 108.666 34.0799 108.548 33.8706 108.553C33.6612 108.548 33.435 108.666 33.1917 108.91L32.6572 109.444C32.4139 109.687 32.2951 109.919 32.3008 110.14C32.3064 110.349 32.4422 110.587 32.7081 110.853L32.9711 111.116C33.2257 111.37 33.5821 111.359 34.0403 111.082C34.2439 110.957 34.456 110.813 34.6767 110.649C34.9029 110.479 35.1433 110.324 35.3979 110.182C35.6525 110.041 35.9098 109.936 36.1701 109.868C36.4246 109.795 36.699 109.803 36.9931 109.894C37.2816 109.979 37.5616 110.157 37.8332 110.428L38.1641 110.759C38.5771 111.172 38.7835 111.616 38.7835 112.092C38.7835 112.555 38.5771 112.994 38.1641 113.407L37.2138 114.357C36.8008 114.77 36.3596 114.979 35.89 114.985C35.4149 114.985 34.9708 114.779 34.5579 114.366ZM41.4297 110.141L40.5302 111.041C40.4284 111.142 40.3209 111.154 40.2078 111.075L34.0305 106.917C33.923 106.832 33.923 106.736 34.0305 106.628L34.6839 105.975C34.7914 105.867 34.896 105.859 34.9978 105.95L40.1314 109.708L40.1823 109.658L36.7203 104.193C36.6468 104.097 36.6553 104.004 36.7458 103.913L37.4586 103.2C37.5491 103.11 37.6452 103.098 37.7471 103.166L43.2201 106.62L43.271 106.569L39.5205 101.444C39.4243 101.336 39.43 101.229 39.5375 101.121L40.1908 100.468C40.304 100.355 40.403 100.358 40.4878 100.476L44.6371 106.645C44.7163 106.758 44.7078 106.863 44.6117 106.959L43.7122 107.859C43.6161 107.955 43.5114 107.963 43.3983 107.884L38.1459 104.549L38.1119 104.583L41.4466 109.836C41.5258 109.949 41.5202 110.051 41.4297 110.141Z" fill="#FF4040"/>
<path d="M108.654 40.9737L108.128 41.4998C108.032 41.596 107.935 41.596 107.839 41.4998L102.672 36.3323C102.576 36.2361 102.576 36.1399 102.672 36.0438L103.147 35.5686C103.237 35.4781 103.331 35.447 103.427 35.4752L109.171 37.1129L109.205 37.079L105.565 33.4388C105.469 33.3426 105.469 33.2464 105.565 33.1503L106.091 32.6242C106.187 32.528 106.284 32.528 106.38 32.6242L111.547 37.7917C111.643 37.8879 111.643 37.9841 111.547 38.0802L111.089 38.5384C110.999 38.6289 110.88 38.6572 110.733 38.6233L105.048 37.0111L105.014 37.045L108.654 40.6852C108.75 40.7814 108.75 40.8775 108.654 40.9737ZM114.942 34.686L112.226 37.4013C112.13 37.4975 112.034 37.4975 111.938 37.4013L106.77 32.2338C106.674 32.1376 106.674 32.0415 106.77 31.9453L109.485 29.23C109.576 29.1395 109.669 29.1423 109.765 29.2385L110.198 29.6712C110.294 29.7674 110.297 29.8607 110.207 29.9513L108.272 31.8859C108.204 31.9538 108.199 32.016 108.255 32.0726L109.689 33.5066C109.746 33.5632 109.808 33.5575 109.876 33.4896L111.513 31.852C111.615 31.7501 111.714 31.7473 111.81 31.8435L112.243 32.2762C112.339 32.3724 112.337 32.4714 112.235 32.5732L110.597 34.2109C110.529 34.2788 110.524 34.341 110.58 34.3975L112.09 35.9079C112.153 35.9701 112.218 35.9673 112.286 35.8994L114.22 33.9648C114.311 33.8743 114.404 33.8771 114.5 33.9733L114.933 34.406C115.029 34.5022 115.032 34.5955 114.942 34.686Z" fill="#FF4040"/>
<path d="M30.9968 36.6537L30.4708 36.1276C30.3746 36.0315 30.3746 35.9353 30.4708 35.8391L35.6383 30.6716C35.7345 30.5754 35.8306 30.5754 35.9268 30.6716L36.402 31.1468C36.4925 31.2373 36.5236 31.3306 36.4953 31.4268L34.8577 37.1713L34.8916 37.2053L38.5318 33.5651C38.6279 33.4689 38.7241 33.4689 38.8203 33.5651L39.3464 34.0912C39.4425 34.1873 39.4425 34.2835 39.3464 34.3797L34.1788 39.5472C34.0827 39.6434 33.9865 39.6434 33.8903 39.5472L33.4321 39.089C33.3416 38.9985 33.3133 38.8797 33.3473 38.7326L34.9595 33.0475L34.9255 33.0135L31.2853 36.6537C31.1892 36.7499 31.093 36.7499 30.9968 36.6537ZM36.0711 41.728L35.1717 40.8285C35.0698 40.7267 35.0585 40.6192 35.1377 40.5061L39.2955 34.3288C39.3804 34.2213 39.4765 34.2213 39.584 34.3288L40.2374 34.9822C40.3449 35.0897 40.3534 35.1943 40.2628 35.2961L36.5039 40.4297L36.5548 40.4807L42.0193 37.0187C42.1155 36.9451 42.2088 36.9536 42.2993 37.0441L43.0121 37.7569C43.1026 37.8474 43.1139 37.9436 43.046 38.0454L39.5925 43.5184L39.6434 43.5693L44.7685 39.8188C44.876 39.7226 44.9835 39.7283 45.091 39.8358L45.7443 40.4891C45.8575 40.6023 45.8546 40.7013 45.7358 40.7861L39.567 44.9354C39.4539 45.0146 39.3493 45.0061 39.2531 44.91L38.3537 44.0105C38.2575 43.9144 38.249 43.8097 38.3282 43.6966L41.6629 38.4442L41.629 38.4102L36.3766 41.745C36.2634 41.8242 36.1616 41.8185 36.0711 41.728Z" fill="#FF4040"/>
<path d="M103.548 105.558L103.769 105.337C103.865 105.241 103.961 105.241 104.058 105.337L104.601 105.88C104.697 105.976 104.697 106.073 104.601 106.169L104.448 106.322C104.21 106.559 104.089 106.783 104.083 106.992C104.089 107.201 104.213 107.427 104.456 107.671L105.042 108.256C105.285 108.499 105.514 108.621 105.729 108.621C105.95 108.615 106.184 108.488 106.433 108.239L106.629 108.044C106.81 107.863 106.88 107.651 106.841 107.408C106.812 107.164 106.711 106.927 106.535 106.695C106.366 106.457 106.187 106.189 106.001 105.889C105.814 105.589 105.656 105.3 105.525 105.023C105.395 104.746 105.361 104.435 105.424 104.09C105.492 103.75 105.684 103.422 106.001 103.106L106.357 102.749C106.77 102.336 107.208 102.13 107.672 102.13C108.147 102.13 108.591 102.336 109.004 102.749L109.904 103.649C110.322 104.067 110.529 104.511 110.523 104.981C110.529 105.45 110.325 105.892 109.912 106.305L109.726 106.491C109.63 106.587 109.533 106.587 109.437 106.491L108.894 105.948C108.798 105.852 108.798 105.756 108.894 105.66L109.004 105.549C109.248 105.306 109.366 105.08 109.361 104.871C109.366 104.661 109.248 104.435 109.004 104.192L108.47 103.657C108.227 103.414 107.995 103.295 107.774 103.301C107.565 103.306 107.327 103.442 107.061 103.708L106.798 103.971C106.544 104.226 106.555 104.582 106.832 105.04C106.957 105.244 107.101 105.456 107.265 105.677C107.435 105.903 107.59 106.143 107.732 106.398C107.873 106.652 107.978 106.91 108.046 107.17C108.119 107.425 108.111 107.699 108.02 107.993C107.935 108.282 107.757 108.562 107.486 108.833L107.155 109.164C106.742 109.577 106.298 109.784 105.822 109.784C105.359 109.784 104.92 109.577 104.507 109.164L103.557 108.214C103.144 107.801 102.935 107.36 102.929 106.89C102.929 106.415 103.135 105.971 103.548 105.558ZM108.986 113.643L106.271 110.928C106.175 110.832 106.175 110.735 106.271 110.639L111.438 105.472C111.535 105.376 111.631 105.376 111.727 105.472L114.442 108.187C114.533 108.278 114.53 108.371 114.434 108.467L114.001 108.9C113.905 108.996 113.811 108.999 113.721 108.908L111.786 106.974C111.718 106.906 111.656 106.9 111.6 106.957L110.166 108.391C110.109 108.447 110.115 108.509 110.183 108.577L111.82 110.215C111.922 110.317 111.925 110.416 111.829 110.512L111.396 110.945C111.3 111.041 111.201 111.038 111.099 110.936L109.461 109.299C109.393 109.231 109.331 109.225 109.275 109.282L107.764 110.792C107.702 110.854 107.705 110.919 107.773 110.987L109.707 112.922C109.798 113.012 109.795 113.106 109.699 113.202L109.266 113.635C109.17 113.731 109.077 113.734 108.986 113.643Z" fill="#FF4040"/>
<path d="M69.732 124.128V123.816C69.732 123.68 69.8 123.612 69.936 123.612H70.704C70.84 123.612 70.908 123.68 70.908 123.816V124.032C70.908 124.368 70.98 124.612 71.124 124.764C71.276 124.908 71.524 124.98 71.868 124.98H72.696C73.04 124.98 73.288 124.904 73.44 124.752C73.592 124.592 73.668 124.336 73.668 123.984V123.708C73.668 123.452 73.568 123.252 73.368 123.108C73.176 122.956 72.936 122.86 72.648 122.82C72.36 122.772 72.044 122.708 71.7 122.628C71.356 122.548 71.04 122.456 70.752 122.352C70.464 122.248 70.22 122.052 70.02 121.764C69.828 121.476 69.732 121.108 69.732 120.66V120.156C69.732 119.572 69.896 119.116 70.224 118.788C70.56 118.452 71.02 118.284 71.604 118.284H72.876C73.468 118.284 73.928 118.452 74.256 118.788C74.592 119.116 74.76 119.572 74.76 120.156V120.42C74.76 120.556 74.692 120.624 74.556 120.624H73.788C73.652 120.624 73.584 120.556 73.584 120.42V120.264C73.584 119.92 73.508 119.676 73.356 119.532C73.212 119.38 72.968 119.304 72.624 119.304H71.868C71.524 119.304 71.276 119.384 71.124 119.544C70.98 119.696 70.908 119.96 70.908 120.336V120.708C70.908 121.068 71.168 121.312 71.688 121.44C71.92 121.496 72.172 121.544 72.444 121.584C72.724 121.624 73.004 121.684 73.284 121.764C73.564 121.844 73.82 121.952 74.052 122.088C74.284 122.216 74.472 122.416 74.616 122.688C74.76 122.952 74.832 123.276 74.832 123.66V124.128C74.832 124.712 74.664 125.172 74.328 125.508C74 125.836 73.544 126 72.96 126H71.616C71.032 126 70.572 125.836 70.236 125.508C69.9 125.172 69.732 124.712 69.732 124.128Z" fill="#FF4040"/>
<path d="M70.824 26H70.08C69.944 26 69.876 25.932 69.876 25.796V18.488C69.876 18.352 69.944 18.284 70.08 18.284H70.752C70.88 18.284 70.968 18.328 71.016 18.416L73.92 23.636H73.968V18.488C73.968 18.352 74.036 18.284 74.172 18.284H74.916C75.052 18.284 75.12 18.352 75.12 18.488V25.796C75.12 25.932 75.052 26 74.916 26H74.268C74.14 26 74.036 25.936 73.956 25.808L71.076 20.648H71.028V25.796C71.028 25.932 70.96 26 70.824 26Z" fill="#FF4040"/>
</g>
<defs>
<clipPath id="clip0_87_69">
<rect width="144" height="144" fill="white"/>
</clipPath>
</defs>
</svg>
