<svg width="144" height="144" viewBox="0 0 144 144" fill="none" xmlns="http://www.w3.org/2000/svg">
<g clip-path="url(#clip0_87_69)">
<circle cx="72" cy="72" r="71" stroke="#4B5D63" stroke-width="2"/>
<rect x="71" y="2" width="2" height="8" fill="#4B5D63"/>
<rect x="71" y="134" width="2" height="8" fill="#4B5D63"/>
<rect x="2" y="73" width="2" height="8" transform="rotate(-90 2 73)" fill="#4B5D63"/>
<rect x="134" y="73" width="2" height="8" transform="rotate(-90 134 73)" fill="#4B5D63"/>
<rect x="21.7955" y="23.2096" width="2" height="6" transform="rotate(-45 21.7955 23.2096)" fill="#4B5D63"/>
<rect x="122.205" y="120.79" width="2" height="6" transform="rotate(135 122.205 120.79)" fill="#4B5D63"/>
<rect x="120.79" y="21.7954" width="2" height="6" transform="rotate(45 120.79 21.7954)" fill="#4B5D63"/>
<rect x="23.2097" y="122.205" width="2" height="6" transform="rotate(-135 23.2097 122.205)" fill="#4B5D63"/>
<path d="M17.204 76H15.932C15.788 76 15.704 75.932 15.68 75.796L14.252 68.488C14.236 68.352 14.304 68.284 14.456 68.284H15.38C15.532 68.284 15.612 68.352 15.62 68.488L16.592 74.776H16.664L18.08 68.464C18.096 68.344 18.168 68.284 18.296 68.284H19.304C19.432 68.284 19.508 68.344 19.532 68.464L20.96 74.776H21.032L22.004 68.5C22.012 68.356 22.092 68.284 22.244 68.284H23.168C23.328 68.284 23.396 68.356 23.372 68.5L21.944 75.796C21.92 75.932 21.84 76 21.704 76H20.432C20.296 76 20.216 75.932 20.192 75.796L18.836 69.724H18.788L17.432 75.796C17.408 75.932 17.332 76 17.204 76Z" fill="#4B5D63"/>
<path d="M128.92 76H125.08C124.944 76 124.876 75.932 124.876 75.796V68.488C124.876 68.352 124.944 68.284 125.08 68.284H128.92C129.048 68.284 129.112 68.352 129.112 68.488V69.1C129.112 69.236 129.048 69.304 128.92 69.304H126.184C126.088 69.304 126.04 69.344 126.04 69.424V71.452C126.04 71.532 126.088 71.572 126.184 71.572H128.5C128.644 71.572 128.716 71.64 128.716 71.776V72.388C128.716 72.524 128.644 72.592 128.5 72.592H126.184C126.088 72.592 126.04 72.632 126.04 72.712V74.848C126.04 74.936 126.088 74.98 126.184 74.98H128.92C129.048 74.98 129.112 75.048 129.112 75.184V75.796C129.112 75.932 129.048 76 128.92 76Z" fill="#4B5D63"/>
<path d="M31.5579 115.366L31.3372 115.145C31.2411 115.049 31.2411 114.953 31.3372 114.857L31.8803 114.313C31.9765 114.217 32.0726 114.217 32.1688 114.313L32.3215 114.466C32.5591 114.704 32.7826 114.825 32.9919 114.831C33.2012 114.825 33.4274 114.701 33.6707 114.458L34.2562 113.872C34.4994 113.629 34.621 113.4 34.621 113.185C34.6154 112.964 34.4881 112.73 34.2392 112.481L34.044 112.285C33.863 112.104 33.6509 112.034 33.4077 112.073C33.1644 112.102 32.9268 112.203 32.6949 112.379C32.4573 112.549 32.1886 112.727 31.8888 112.913C31.589 113.1 31.3005 113.258 31.0233 113.389C30.7461 113.519 30.435 113.553 30.0899 113.49C29.7505 113.423 29.4224 113.23 29.1056 112.913L28.7492 112.557C28.3363 112.144 28.1298 111.706 28.1298 111.242C28.1298 110.767 28.3363 110.323 28.7492 109.91L29.6487 109.01C30.0673 108.592 30.5113 108.385 30.9809 108.391C31.4504 108.385 31.8916 108.589 32.3046 109.002L32.4912 109.188C32.5874 109.285 32.5874 109.381 32.4912 109.477L31.9482 110.02C31.852 110.116 31.7558 110.116 31.6597 110.02L31.5494 109.91C31.3061 109.666 31.0799 109.548 30.8706 109.553C30.6612 109.548 30.435 109.666 30.1917 109.91L29.6572 110.444C29.4139 110.687 29.2951 110.919 29.3008 111.14C29.3064 111.349 29.4422 111.587 29.7081 111.853L29.9711 112.116C30.2257 112.37 30.5821 112.359 31.0403 112.082C31.2439 111.957 31.456 111.813 31.6767 111.649C31.9029 111.479 32.1433 111.324 32.3979 111.182C32.6525 111.041 32.9098 110.936 33.1701 110.868C33.4246 110.795 33.699 110.803 33.9931 110.894C34.2816 110.979 34.5616 111.157 34.8332 111.428L35.1641 111.759C35.5771 112.172 35.7835 112.616 35.7835 113.092C35.7835 113.555 35.5771 113.994 35.1641 114.407L34.2138 115.357C33.8008 115.77 33.3596 115.979 32.89 115.985C32.4149 115.985 31.9708 115.779 31.5579 115.366ZM38.4297 111.141L37.5302 112.041C37.4284 112.143 37.3209 112.154 37.2078 112.075L31.0305 107.917C30.923 107.832 30.923 107.736 31.0305 107.628L31.6839 106.975C31.7914 106.867 31.896 106.859 31.9978 106.95L37.1314 110.708L37.1823 110.658L33.7203 105.193C33.6468 105.097 33.6553 105.004 33.7458 104.913L34.4586 104.2C34.5491 104.11 34.6452 104.098 34.7471 104.166L40.2201 107.62L40.271 107.569L36.5205 102.444C36.4243 102.336 36.43 102.229 36.5375 102.121L37.1908 101.468C37.304 101.355 37.403 101.358 37.4878 101.477L41.6371 107.645C41.7163 107.758 41.7078 107.863 41.6117 107.959L40.7122 108.859C40.6161 108.955 40.5114 108.963 40.3983 108.884L35.1459 105.549L35.1119 105.583L38.4466 110.836C38.5258 110.949 38.5202 111.051 38.4297 111.141Z" fill="#4B5D63"/>
<path d="M110.654 38.9737L110.128 39.4998C110.031 39.596 109.935 39.596 109.839 39.4998L104.672 34.3322C104.575 34.2361 104.575 34.1399 104.672 34.0437L105.147 33.5686C105.237 33.4781 105.331 33.4469 105.427 33.4752L111.171 35.1129L111.205 35.079L107.565 31.4388C107.469 31.3426 107.469 31.2464 107.565 31.1503L108.091 30.6242C108.187 30.528 108.284 30.528 108.38 30.6242L113.547 35.7917C113.643 35.8879 113.643 35.984 113.547 36.0802L113.089 36.5384C112.998 36.6289 112.88 36.6572 112.733 36.6233L107.047 35.0111L107.014 35.045L110.654 38.6852C110.75 38.7814 110.75 38.8775 110.654 38.9737ZM116.941 32.686L114.226 35.4013C114.13 35.4975 114.034 35.4975 113.938 35.4013L108.77 30.2338C108.674 30.1376 108.674 30.0415 108.77 29.9453L111.485 27.23C111.576 27.1395 111.669 27.1423 111.765 27.2385L112.198 27.6712C112.294 27.7674 112.297 27.8607 112.207 27.9512L110.272 29.8859C110.204 29.9538 110.198 30.016 110.255 30.0726L111.689 31.5066C111.746 31.5632 111.808 31.5575 111.876 31.4896L113.513 29.852C113.615 29.7501 113.714 29.7473 113.81 29.8435L114.243 30.2762C114.339 30.3724 114.336 30.4714 114.235 30.5732L112.597 32.2109C112.529 32.2787 112.523 32.341 112.58 32.3975L114.09 33.9079C114.153 33.9701 114.218 33.9673 114.285 33.8994L116.22 31.9648C116.311 31.8743 116.404 31.8771 116.5 31.9733L116.933 32.406C117.029 32.5022 117.032 32.5955 116.941 32.686Z" fill="#4B5D63"/>
<path d="M27.9968 32.6537L27.4708 32.1276C27.3746 32.0315 27.3746 31.9353 27.4708 31.8391L32.6383 26.6716C32.7345 26.5754 32.8306 26.5754 32.9268 26.6716L33.402 27.1468C33.4925 27.2373 33.5236 27.3306 33.4953 27.4268L31.8577 33.1713L31.8916 33.2053L35.5318 29.5651C35.6279 29.4689 35.7241 29.4689 35.8203 29.5651L36.3464 30.0912C36.4425 30.1873 36.4425 30.2835 36.3464 30.3797L31.1788 35.5472C31.0827 35.6434 30.9865 35.6434 30.8903 35.5472L30.4321 35.089C30.3416 34.9985 30.3133 34.8797 30.3473 34.7326L31.9595 29.0475L31.9255 29.0135L28.2853 32.6537C28.1892 32.7499 28.093 32.7499 27.9968 32.6537ZM33.0711 37.728L32.1717 36.8285C32.0698 36.7267 32.0585 36.6192 32.1377 36.5061L36.2955 30.3288C36.3804 30.2213 36.4765 30.2213 36.584 30.3288L37.2374 30.9822C37.3449 31.0897 37.3534 31.1943 37.2628 31.2961L33.5039 36.4297L33.5548 36.4807L39.0193 33.0187C39.1155 32.9451 39.2088 32.9536 39.2993 33.0441L40.0121 33.7569C40.1026 33.8474 40.1139 33.9436 40.046 34.0454L36.5925 39.5184L36.6434 39.5693L41.7685 35.8188C41.876 35.7226 41.9835 35.7283 42.091 35.8358L42.7443 36.4891C42.8575 36.6023 42.8546 36.7013 42.7358 36.7861L36.567 40.9354C36.4539 41.0146 36.3493 41.0061 36.2531 40.91L35.3537 40.0105C35.2575 39.9144 35.249 39.8097 35.3282 39.6966L38.6629 34.4442L38.629 34.4102L33.3766 37.745C33.2634 37.8242 33.1616 37.8185 33.0711 37.728Z" fill="#4B5D63"/>
<path d="M105.548 107.558L105.769 107.337C105.865 107.241 105.961 107.241 106.058 107.337L106.601 107.88C106.697 107.976 106.697 108.073 106.601 108.169L106.448 108.322C106.21 108.559 106.089 108.783 106.083 108.992C106.089 109.201 106.213 109.427 106.456 109.671L107.042 110.256C107.285 110.499 107.514 110.621 107.729 110.621C107.95 110.615 108.184 110.488 108.433 110.239L108.629 110.044C108.81 109.863 108.88 109.651 108.841 109.408C108.812 109.164 108.711 108.927 108.535 108.695C108.366 108.457 108.187 108.189 108.001 107.889C107.814 107.589 107.656 107.3 107.525 107.023C107.395 106.746 107.361 106.435 107.424 106.09C107.492 105.75 107.684 105.422 108.001 105.106L108.357 104.749C108.77 104.336 109.208 104.13 109.672 104.13C110.147 104.13 110.591 104.336 111.004 104.749L111.904 105.649C112.322 106.067 112.529 106.511 112.523 106.981C112.529 107.45 112.325 107.892 111.912 108.305L111.726 108.491C111.63 108.587 111.533 108.587 111.437 108.491L110.894 107.948C110.798 107.852 110.798 107.756 110.894 107.66L111.004 107.549C111.248 107.306 111.366 107.08 111.361 106.871C111.366 106.661 111.248 106.435 111.004 106.192L110.47 105.657C110.227 105.414 109.995 105.295 109.774 105.301C109.565 105.306 109.327 105.442 109.061 105.708L108.798 105.971C108.544 106.226 108.555 106.582 108.832 107.04C108.957 107.244 109.101 107.456 109.265 107.677C109.435 107.903 109.59 108.143 109.732 108.398C109.873 108.652 109.978 108.91 110.046 109.17C110.119 109.425 110.111 109.699 110.02 109.993C109.935 110.282 109.757 110.562 109.486 110.833L109.155 111.164C108.742 111.577 108.298 111.784 107.822 111.784C107.359 111.784 106.92 111.577 106.507 111.164L105.557 110.214C105.144 109.801 104.935 109.36 104.929 108.89C104.929 108.415 105.135 107.971 105.548 107.558ZM110.986 115.643L108.271 112.928C108.175 112.832 108.175 112.735 108.271 112.639L113.438 107.472C113.535 107.376 113.631 107.376 113.727 107.472L116.442 110.187C116.533 110.278 116.53 110.371 116.434 110.467L116.001 110.9C115.905 110.996 115.811 110.999 115.721 110.908L113.786 108.974C113.718 108.906 113.656 108.9 113.6 108.957L112.166 110.391C112.109 110.447 112.115 110.509 112.183 110.577L113.82 112.215C113.922 112.317 113.925 112.416 113.829 112.512L113.396 112.945C113.3 113.041 113.201 113.038 113.099 112.936L111.461 111.299C111.393 111.231 111.331 111.225 111.275 111.282L109.764 112.792C109.702 112.854 109.705 112.919 109.773 112.987L111.707 114.922C111.798 115.012 111.795 115.106 111.699 115.202L111.266 115.635C111.17 115.731 111.077 115.734 110.986 115.643Z" fill="#4B5D63"/>
<path d="M69.732 128.128V127.816C69.732 127.68 69.8 127.612 69.936 127.612H70.704C70.84 127.612 70.908 127.68 70.908 127.816V128.032C70.908 128.368 70.98 128.612 71.124 128.764C71.276 128.908 71.524 128.98 71.868 128.98H72.696C73.04 128.98 73.288 128.904 73.44 128.752C73.592 128.592 73.668 128.336 73.668 127.984V127.708C73.668 127.452 73.568 127.252 73.368 127.108C73.176 126.956 72.936 126.86 72.648 126.82C72.36 126.772 72.044 126.708 71.7 126.628C71.356 126.548 71.04 126.456 70.752 126.352C70.464 126.248 70.22 126.052 70.02 125.764C69.828 125.476 69.732 125.108 69.732 124.66V124.156C69.732 123.572 69.896 123.116 70.224 122.788C70.56 122.452 71.02 122.284 71.604 122.284H72.876C73.468 122.284 73.928 122.452 74.256 122.788C74.592 123.116 74.76 123.572 74.76 124.156V124.42C74.76 124.556 74.692 124.624 74.556 124.624H73.788C73.652 124.624 73.584 124.556 73.584 124.42V124.264C73.584 123.92 73.508 123.676 73.356 123.532C73.212 123.38 72.968 123.304 72.624 123.304H71.868C71.524 123.304 71.276 123.384 71.124 123.544C70.98 123.696 70.908 123.96 70.908 124.336V124.708C70.908 125.068 71.168 125.312 71.688 125.44C71.92 125.496 72.172 125.544 72.444 125.584C72.724 125.624 73.004 125.684 73.284 125.764C73.564 125.844 73.82 125.952 74.052 126.088C74.284 126.216 74.472 126.416 74.616 126.688C74.76 126.952 74.832 127.276 74.832 127.66V128.128C74.832 128.712 74.664 129.172 74.328 129.508C74 129.836 73.544 130 72.96 130H71.616C71.032 130 70.572 129.836 70.236 129.508C69.9 129.172 69.732 128.712 69.732 128.128Z" fill="#4B5D63"/>
<path d="M70.824 23H70.08C69.944 23 69.876 22.932 69.876 22.796V15.488C69.876 15.352 69.944 15.284 70.08 15.284H70.752C70.88 15.284 70.968 15.328 71.016 15.416L73.92 20.636H73.968V15.488C73.968 15.352 74.036 15.284 74.172 15.284H74.916C75.052 15.284 75.12 15.352 75.12 15.488V22.796C75.12 22.932 75.052 23 74.916 23H74.268C74.14 23 74.036 22.936 73.956 22.808L71.076 17.648H71.028V22.796C71.028 22.932 70.96 23 70.824 23Z" fill="#4B5D63"/>
</g>
<defs>
<clipPath id="clip0_87_69">
<rect width="144" height="144" fill="white"/>
</clipPath>
</defs>
</svg>
